<!--?xml version="1.0" encoding="utf-8"?-->
<!-- Generator: Adobe Illustrator 25.2.3, SVG Export Plug-In . SVG Version: 6.00 Build 0)  -->
<svg version="1.1" id="_x33_" xmlns="http://www.w3.org/2000/svg" xmlns:xlink="http://www.w3.org/1999/xlink" x="0px" y="0px" viewBox="0 0 725 576" style="width: 360px;" xml:space="preserve">
<style type="text/css">
 .stblack{fill:#000000;}
</style>
<g id="svgID1" transform="translate(2.5007848739624023,2.5315685272216797) rotate(0,359.9992151260376,285.4684314727783) scale(1,1)">
	<path class="stblack" d="M272.471,189.99c-0.83,1.472-1.772,2.972-2.472,4.557c-0.949,2.344-1.57,4.739-2.339,6.975
		c-0.895,2.606-1.939,5.03-2.704,7.288c-0.713,2.195-1.176,4.212-1.797,5.923c-1.66,4.442-3.032,7.041-3.934,6.869
		c-0.814-0.155-1.206-2.649-1.086-6.802c0.052-1.97,0.355-4.287,0.684-6.933c0.209-1.71,0.391-3.579,0.742-5.526
		c0.351-1.639,0.778-3.319,1.284-5.097c0.421-1.699,0.864-3.499,1.5-5.308c0.738-1.992,1.712-3.987,2.859-6.04
		c1.181-2.081,2.27-3.747,3.484-5.013c0.812-0.965,1.88-1.625,2.699-2.273c0.92-0.589,1.894-1.016,2.805-1.501
		c0.951-0.335,1.934-0.685,3.023-0.995c1.095-0.117,2.373-0.465,3.736-0.334c0.74,0.052,1.532,0.108,2.387,0.245
		c0.855,0.233,1.777,0.485,2.782,0.759c1.145,0.394,2.184,0.929,3.257,1.4c0.954,0.582,1.871,1.196,2.758,1.827
		c0.938,0.86,1.896,1.706,2.686,2.607c0.747,0.924,1.557,1.791,2.195,2.698c1.507,1.996,2.85,3.904,3.853,5.808
		c1.084,2.005,1.822,3.968,2.49,5.714c0.544,1.365,1.057,2.598,1.408,3.749c1.174,4.15,1.233,6.761,0.432,7.029
		c-0.706,0.242-1.707-1.372-3.511-4.091c-1.046-1.604-2.553-3.487-4.029-5.734c-1.264-1.882-2.479-4.085-4.141-6.169
		c-0.628-0.817-1.395-1.53-2.119-2.313c-0.787-0.687-1.55-1.45-2.337-2.133c-1.629-1.494-3.334-2.854-5.234-3.587
		c-0.736-0.105-1.334-0.324-1.964-0.253c-0.616,0.078-1.181,0.048-1.644,0.117c-2.243,0.302-3.318,0.712-4.946,2.266
		c-0.457,0.359-0.81,1.067-1.3,1.683C273.55,188.141,273.042,188.957,272.471,189.99z" style="opacity: 1;"></path>
	<path class="stblack" d="M335.512,186.388c-1.084,2.033-2.216,4.109-2.987,6.301c-1.111,3.168-1.692,6.41-2.346,9.442
		c-0.117,0.549-0.232,1.092-0.349,1.625c-0.126,0.622-0.193,0.793-0.391,2.049c-0.333,2.009-0.506,3.959-0.731,5.623
		c-2.706-0.143-4.96-0.262-7.128-0.377c-3.115-0.251-5.92-0.284-8.341-0.587c-6.305-0.787-10.016-1.716-9.985-2.622
		c0.029-0.835,3.235-1.638,8.669-2.291c2.578-0.31,5.655-0.463,9.137-0.695c0.967-0.045,0.817-0.11,1.012-0.175l0.295-0.211
		l-0.142-0.483l-0.025-0.096l0.022-0.278l0.047-0.432c0.079-0.576,0.155-1.158,0.236-1.746c0.169-1.175,0.387-2.367,0.598-3.588
		c0.409-2.331,0.839-4.771,1.59-7.231c0.832-2.707,2.013-5.426,3.462-8.156c1.476-2.769,2.92-4.917,4.447-6.535
		c2.265-2.402,4.469-3.731,6.834-4.81c2.261-0.996,4.818-1.864,8.347-1.921c0.45-0.03,0.976-0.008,1.577,0.073
		c0.578,0.061,1.181,0.129,1.75,0.298c1.185,0.268,2.355,0.699,3.543,1.224c2.821,1.27,5.158,2.855,7.173,4.588
		c2.45,2.127,4.411,4.449,6.24,6.65c2.045,2.468,3.9,4.833,5.448,7.165c1.635,2.466,2.922,4.874,4.105,7.023
		c0.927,1.689,1.833,3.193,2.506,4.625c2.407,5.119,3.244,8.395,2.497,8.788c-0.661,0.35-2.2-1.648-4.917-5.067
		c-1.599-2.006-3.732-4.413-5.99-7.296c-1.905-2.43-3.84-5.271-6.255-8.048c-1.867-2.146-4.078-4.178-6.283-6.243
		c-2.308-2.124-4.739-4.431-7.423-5.615c-1.001-0.445-1.883-0.588-2.603-0.616c-0.628-0.018-1.464,0.125-2.173,0.164
		c-3.37,0.561-5.111,1.341-7.488,3.548C338.242,181.709,337.023,183.556,335.512,186.388z" style="opacity: 1;"></path>
	<path class="stblack" d="M247.28,229.586c-1.977-0.13-3.833-0.355-5.509-0.274c-1.485,0.084-2.812,0.447-4.089,0.645
		c-1.284,0.18-2.528,0.208-3.66,0.462c-3.196,0.759-5.781,1.957-8.512,2.878c-0.808,0.278-2.342,0.612-4.247,1.402
		c-1.201,0.508-2.479,1.326-3.954,2.024c-1.563,0.745-3.363,1.409-5.036,2.415c-1.451,0.875-2.796,1.981-3.934,3.004
		c-0.857,0.744-1.707,1.443-1.937,2.216c-0.229,0.745,0.11,1.559,0.747,2.384c0.625,0.899,1.903,2.258,3.154,3.263
		c1.338,0.995,2.809,1.781,4.211,2.656c1.379,0.929,2.708,1.938,4.089,2.734c1.91,1.036,3.86,1.782,5.617,2.567
		c1.424,0.63,2.744,1.236,3.993,1.704c1.732,0.654,3.145,1.418,4.384,1.781c1.352,0.361,3.691,0.851,6.532,1.681
		c1.455,0.419,2.949,1.173,4.652,1.691c0.884,0.271,1.871,0.338,2.796,0.647c2.076,0.72,4.191,1.692,6.402,2.511
		c2.389,0.884,4.931,1.432,7.351,2.134c1.332,0.341,2.587,0.895,3.869,1.224c1.817,0.483,3.637,0.671,5.293,1.024
		c1.799,0.385,3.403,1.031,4.897,1.277c0.913,0.163,2.798,0.076,5.239,0.341c1.32,0.137,2.789,0.467,4.424,0.655
		c1.39,0.142,2.906,0.142,4.463,0.302c1.644,0.197,3.343,0.638,5.12,0.852c1.541,0.157,3.145,0.028,4.737,0.165
		c1.377,0.108,2.749,0.488,4.146,0.519c1.613,0.067,3.235-0.049,4.82,0.088c1.437,0.137,2.852,0.39,4.245,0.471
		c1.721,0.053,3.397-0.037,4.98-0.154c1.334-0.066,2.625,0.127,3.837,0.1c2.551,0,4.76-0.262,6.51-0.362
		c1.746-0.133,3.023-0.208,3.655-0.335c1.633-0.255,3.205-0.31,4.625-0.604c1.739-0.317,3.21-1.056,4.512-1.448
		c2.182-0.688,3.752-1.175,4.508-1.371c0.963-0.244,2.425-0.342,4.103-0.731c1.853-0.376,3.905-1.219,6.118-1.937
		c1.125-0.355,2.364-0.488,3.516-0.881c1.698-0.687,3.327-1.559,4.96-2.18c1.399-0.488,2.773-0.88,3.932-1.457
		c1.642-0.802,2.929-1.747,3.891-2.404c1.104-0.794,2.576-1.645,4.067-2.619c1.129-0.814,2.299-1.656,3.397-2.45
		c0.697-0.459,1.516-0.682,2.175-1.042c1.044-0.57,1.869-1.175,2.663-1.347c1.48-0.317,2.402,0.188,2.092,2.171
		c-0.139,0.881-0.511,1.757-1.055,2.623c-0.648,1.022-1.671,1.832-2.71,2.802c-1.077,1.039-2.328,2.042-3.691,2.899
		c-1.356,0.797-2.845,1.395-4.227,2.029c-2.794,1.186-5.27,2.413-6.964,3.174c-0.715,0.284-2.27,0.593-4.344,1.337
		c-1.255,0.446-2.636,1.24-4.38,1.694c-1.964,0.533-4.218,1.058-6.69,1.639c-1.309,0.302-2.625,0.839-4.065,1.165
		c-1.458,0.365-3.05,0.417-4.652,0.67c-2.229,0.355-4.501,1.119-6.969,1.409c-0.918,0.129-2.821,0.134-5.331,0.505
		c-1.494,0.147-3.194,0.571-5.09,0.82c-1.372,0.202-2.85,0.144-4.382,0.288c-1.883,0.191-3.858,0.783-5.916,1.034
		c-1.305,0.145-2.634,0.062-3.979,0.205c-1.653,0.193-3.34,0.566-5.025,0.576c-1.158,0.017-2.319,0.033-3.473,0.049
		c-1.984,0.055-3.918-0.341-5.824-0.391c-1.997-0.057-3.961,0.074-5.801-0.062c-2.006-0.138-3.878-0.427-5.599-0.605
		c-1.379-0.13-2.692-0.018-3.842-0.13c-2.771-0.236-4.706-0.812-5.578-0.977c-1.199-0.271-2.931-0.307-4.919-0.77
		c-1.698-0.386-3.585-1.042-5.677-1.537c-1.907-0.5-4.006-0.817-6.112-1.4c-2.162-0.646-4.326-1.544-6.566-2.201
		c-1.363-0.442-2.8-0.66-4.152-1.101c-1.925-0.603-3.705-1.523-5.495-2.185c-1.766-0.638-3.518-1.11-5.072-1.769
		c-2.276-0.93-4.184-2.094-5.826-2.876c-2.699-1.265-4.481-2.042-4.737-2.205c-0.742-0.528-2.416-1.656-4.834-2.822
		c-1.136-0.521-2.486-0.964-3.853-1.618c-1.579-0.738-3.131-1.855-4.897-2.743c-1.098-0.616-2.378-0.994-3.547-1.625
		c-1.71-0.939-3.316-2.102-5.043-3.33c-1.631-1.116-4.193-3.113-4.798-6.201c-0.499-2.144,0.196-4.289,0.915-5.816
		c1.489-3.211,3.437-5.07,5.147-6.49c1.831-1.436,3.534-2.129,4.645-2.715c1.19-0.606,2.661-1.855,4.553-2.988
		c1.44-0.884,3.142-1.615,4.863-2.575c1.804-0.982,3.655-2.223,5.63-3.117c1.588-0.732,3.268-1.149,4.847-1.698
		c1.658-0.58,3.223-1.292,4.744-1.667c2.816-0.712,5.304-0.837,6.924-0.895c1.307-0.04,2.501-0.205,3.657-0.019
		c1.075,0.159,2.114,0.649,3.023,0.965c1.512,0.512,2.755,1.002,3.732,1.757c1.012,0.803,1.712,1.676,2.067,2.513
		c1.138,2.659,2.123,5.532-0.927,5.796c-1.896,0.197-2.717-0.01-3.801-0.019C249.336,229.366,248.567,229.575,247.28,229.586z" style="opacity: 1;"></path>
	<path class="stblack" d="M283.652,301.561c-1.379-2.178-2.609-4.283-3.444-6.295c-0.511-1.26-0.787-2.496-1.109-3.644
		c-0.583-2.009-1.041-3.799-1.129-5.343c-0.308-6.882,3.336-8.176,7.628,1.17c0.763,1.603,1.86,4.543,3.549,8.308
		c0.835,1.855,1.901,3.852,2.962,6.095c1.082,2.306,2.155,4.885,3.491,7.498c1.183,2.336,2.598,4.673,4.002,7.153
		c1.048,1.892,2.09,3.885,3.304,5.797c1.224,1.872,2.612,3.656,4.011,5.472c1.296,1.733,2.6,3.523,4.089,5.127
		c1.143,1.211,2.409,2.27,3.662,3.325c1.568,1.355,3.158,2.742,4.931,3.709c1.892,1.053,3.878,1.682,5.835,2.07
		c0.475,0.097,0.972,0.216,1.275,0.188c0.353-0.007,0.704,0.136,1.098,0.009c0.387-0.097,0.781-0.047,1.19-0.227l1.233-0.474
		c1.694-0.932,3.223-2.363,4.739-3.883c1.131-1.181,2.364-2.351,3.385-3.696c1.107-1.441,2.031-2.995,3.001-4.545
		c0.835-1.268,1.745-2.527,2.506-3.842c1.089-1.918,1.979-3.906,2.942-5.866c1.165-2.334,2.393-4.656,3.415-7.033
		c0.808-1.887,1.428-3.819,2.153-5.718c0.792-2.049,1.676-4.071,2.384-6.131c0.879-2.607,1.606-5.143,2.454-7.521
		c1.048-2.921,2.2-5.625,3.163-8.106c1.127-2.94,2.027-5.556,2.96-7.702c0.522-1.211,1.165-2.255,1.606-3.167
		c0.758-1.57,1.228-2.695,1.674-3.235c0.738-0.045,1.084,0.54,1.057,2.45c-0.02,1.294-0.142,3.235-0.738,5.829
		c-0.472,2.07-1.309,4.522-2.279,7.589c-0.556,1.752-1.073,3.759-1.829,5.872c-0.567,1.555-1.309,3.135-2.004,4.893
		c-0.646,1.676-1.237,3.524-2.015,5.392c-0.742,1.74-1.633,3.437-2.443,5.245c-0.88,1.997-1.68,4.118-2.654,6.178
		c-0.866,1.856-1.921,3.627-2.852,5.517c-0.816,1.562-1.473,3.258-2.351,4.833c-0.835,1.586-1.862,3.049-2.767,4.628
		c-1.359,2.281-2.686,4.665-4.328,6.838c-1.64,2.27-3.644,4.268-5.772,6.176c-1.799,1.648-3.97,3.202-6.575,3.867
		c-1.118,0.368-2.414,0.252-3.531,0.168c-1.086-0.175-2.144-0.41-3.192-0.707c-2.555-0.699-5.027-1.725-7.198-3.076
		c-1.68-1.014-3.064-2.299-4.523-3.479c-2.164-1.819-4.247-3.688-6.049-5.661c-2.015-2.204-3.662-4.518-5.302-6.704
		c-1.683-2.227-3.331-4.372-4.712-6.478c-1.314-2.01-2.357-3.982-3.428-5.784c-1.516-2.52-2.956-4.76-4.047-6.713
		C285.418,304.958,284.388,302.718,283.652,301.561z" style="opacity: 1;"></path>
	<path class="stblack" d="M208.823,345.718c0.076,2.416,0.034,4.859,0.398,7.228c0.502,3.422,1.46,6.65,2.249,9.734
		c0.92,3.592,1.721,7.018,2.728,10.041c0.965,2.929,2.159,5.433,2.996,7.698c2.189,5.905,3.597,9.495,2.807,10.009
		c-0.67,0.441-3.235-1.794-6.496-6.466c-1.55-2.212-3.111-5.03-4.782-8.286c-1.095-2.1-2.245-4.392-3.275-6.903
		c-0.828-2.132-1.536-4.42-2.236-6.819c-0.706-2.281-1.392-4.686-1.894-7.216c-0.513-2.8-0.747-5.753-0.832-8.817
		c-0.097-3.108,0.043-5.636,0.418-7.762c0.578-3.157,1.507-5.424,2.708-7.685c1.163-2.121,2.513-4.46,5.383-6.792
		c1.518-1.286,3.583-2.268,6.01-3.214c2.947-1.112,5.839-1.432,8.514-1.588c3.32-0.186,6.591,0.287,9.616,1.019
		c1.707,0.349,3.295,1.041,4.861,1.549c1.467,0.761,2.983,1.344,4.231,2.26c0.664,0.47,1.316,0.931,1.952,1.384
		c0.614,0.48,1.154,1.022,1.703,1.518c1.129,0.967,1.997,2.083,2.893,3.056c1.323,1.601,2.486,3.085,3.318,4.552
		c2.935,5.273,3.217,8.893,2.436,9.141c-0.727,0.265-1.871-1.995-4.652-5.272c-1.629-1.91-3.903-4.057-6.645-6.135
		c-2.321-1.728-4.978-3.533-8.228-4.63c-1.287-0.326-2.571-0.757-3.984-0.814c-0.688-0.079-1.386-0.159-2.09-0.24
		c-0.72,0.012-1.444,0.011-2.175-0.01c-1.523-0.145-3.122,0.065-4.748,0.121c-1.656,0.043-3.097,0.383-4.562,0.842
		c-2.128,0.804-3.313,2.063-4.287,3.031c-1.215,1.204-1.937,2.387-2.56,3.603c-0.65,1.2-1.062,2.547-1.46,4.242
		C208.791,339.985,208.746,342.351,208.823,345.718z" style="opacity: 1;"></path>
	<path class="stblack" d="M237.489,347.571c-0.639-0.005-1.309-0.349-1.892-0.265c-0.427,0.031-0.866,0.056-1.251,0.142
		c-0.362,0.126-0.715,0.229-1.086,0.265c-0.459,0.007-0.765,0.173-1.192,0.192c-0.432,0.016-0.794,0.127-1.1,0.301
		c-0.301,0.162-0.634,0.293-0.868,0.506c-0.214,0.23-0.434,0.439-0.7,0.604c-0.774,0.376-1.174,0.979-1.739,1.266
		c-0.517,0.32-0.992,0.488-1.361,0.387c-0.641-0.165-1.075-1.363-0.659-3.476c0.349-0.938,0.812-2.134,1.838-3.162
		c0.31-0.349,0.616-0.757,0.976-1.116c0.387-0.311,0.803-0.629,1.257-0.921c0.765-0.553,1.649-0.762,2.544-1.067
		c0.866-0.352,1.734-0.57,2.663-0.693c1.039-0.189,2.04-0.004,3.077,0.036c1.066,0.01,1.833,0.16,2.51,0.274
		c1.001,0.189,1.64,0.573,2.335,0.841c0.659,0.26,1.392,0.389,2.312,0.819c0.499,0.218,1.041,0.546,1.728,0.831
		c0.792,0.396,1.611,0.705,2.355,1.112c0.88,0.545,1.635,1.228,2.4,1.783c0.81,0.711,1.629,1.311,2.281,2.008
		c0.648,0.802,1.167,1.592,1.606,2.318c0.328,0.597,0.682,1.087,0.902,1.594c0.709,1.895,0.565,3.166-0.056,3.442
		c-0.567,0.269-1.3-0.229-2.317-1.01c-0.704-0.407-1.561-0.847-2.436-1.412c-0.749-0.472-1.379-1.199-2.324-1.719
		c-0.677-0.456-1.57-0.675-2.355-1.1c-0.79-0.499-1.644-1.006-2.537-1.501c-0.718-0.266-1.363-0.259-1.838-0.418
		c-1.179-0.329-1.804-0.629-2.866-0.813C239.126,347.589,238.393,347.583,237.489,347.571z" style="opacity: 1;"></path>
	<path class="stblack" d="M252.469,371.774c-0.49-0.975-0.877-1.989-1.563-2.762c-0.933-1.174-2.243-1.838-3.439-2.57
		c-1.39-0.878-2.951-1.58-4.427-2.103c-0.74-0.191-1.455-0.337-2.135-0.473c-0.691-0.091-1.343-0.188-1.95-0.341
		c-3.192-0.67-5.277-1.15-5.342-1.947c-0.058-0.652,1.572-1.622,4.652-2.188c1.462-0.269,3.244-0.326,5.317-0.236
		c1.343,0.097,2.834,0.162,4.398,0.6c1.307,0.363,2.65,0.946,3.981,1.724c0.661,0.329,1.305,0.73,1.934,1.194
		c0.659,0.423,1.269,0.932,1.824,1.525c1.287,1.243,2.225,2.847,3.039,4.458c0.787,1.649,1.341,2.976,1.577,4.115
		c0.452,1.701,0.346,2.932,0.499,4.196c0.009,0.595,0.043,1.199,0.085,1.868l0.034,0.527c0.013,0.27,0.04,0.534,0.034,0.871
		c-0.092,0.623-0.295,1.404-0.457,1.809c-0.385,1.068-1.023,2.196-1.979,3.453c-1.134,1.496-2.672,2.773-4.359,3.447
		c-2.063,0.812-4.143,0.894-5.88,0.695c-1.984-0.17-3.718-0.542-5.331-1.187c-1.703-0.662-3.226-1.818-4.341-3.108
		c-0.904-0.992-1.514-2.19-1.746-3.274c-0.362-1.993,0.142-3.43,0.616-4.253c0.502-0.834,1.026-1.137,1.35-0.993
		c0.607,0.208,0.317,1.64,1.044,3.416c0.436,1.048,1.39,1.748,2.65,2.343c1.064,0.518,2.558,1.092,4.312,1.299
		c1.361,0.157,2.717-0.094,3.853-0.365c1.17-0.319,2.263-0.667,3.032-1.7c0.29-0.368,0.432-0.804,0.553-1.179l0.119-0.555
		l0.049-0.332l-0.02-0.121c-0.016-0.23-0.034-0.45-0.049-0.661c-0.022-0.451-0.045-0.867-0.065-1.276
		c-0.126-0.783-0.178-1.573-0.412-2.474c-0.146-0.477-0.335-0.998-0.558-1.58C253.063,373.106,252.838,372.438,252.469,371.774z" style="opacity: 1;"></path>
	<path class="stblack" d="M235.667,475.407c-0.414,0.417-0.868,1.383-1.786,2.341c-0.72,0.718-1.719,1.408-2.704,2.28
		c-0.987,0.854-1.835,2.044-3.073,2.918c-1.053,0.745-2.288,1.324-3.493,1.953c-0.987,0.55-1.948,1.146-2.888,1.754
		c-0.978,0.557-1.95,1.109-2.899,1.649c-1.269,0.777-2.704,1.17-3.846,1.879c-0.558,0.335-1.084,0.685-1.584,1.032
		c-0.524,0.311-1.026,0.608-1.496,0.888c-0.942,0.57-1.779,1.078-2.497,1.387c-1.696,0.64-3.406,0.691-4.865,1.04
		c-1.701,0.336-3.248,0.641-4.715,0.93c-1.161,0.269-2.315,0.029-3.428,0.134c-1.039,0.092-2.074,0.259-3.14,0.408
		c-1.062,0.069-2.15,0.012-3.284-0.102c-1.188-0.193-2.416-0.542-3.646-1.107c-1.71-0.714-3.615-1.018-5.79-1.872
		c-0.911-0.428-2.051-1.041-3.37-1.857c-1.442-0.726-3.176-1.658-4.681-3.116c-0.576-0.625-0.981-1.43-1.525-2.117
		c-0.718-1.121-1.813-2.119-2.319-3.439c-0.254-0.575-0.445-1.184-0.63-1.787c-0.148-0.614-0.25-1.235-0.439-1.824
		c-0.434-1.229-0.94-2.413-1.246-3.654c-0.272-0.953-0.11-1.947-0.268-2.867c-0.295-1.523-0.628-2.978-0.754-4.387
		c-0.108-1.398,0.22-2.693,0.202-3.873c0.02-1.251-0.191-2.659-0.164-4.177c0.108-1.479,0.508-3.028,0.803-4.631
		c0.301-1.384,0.335-2.873,0.749-4.296c0.425-1.4,1.062-2.766,1.505-4.151c0.319-1.025,0.333-2.131,0.596-3.157
		c0.153-0.621,0.61-1.141,0.776-1.74c0.351-1.173,0.407-2.417,0.832-3.489c0.443-1.121,1.145-2.091,1.568-3.081
		c0.268-0.657,0.317-1.363,0.587-1.947c0.506-1.085,1.201-1.954,1.534-2.793c0.31-0.786,0.412-1.679,0.76-2.485
		c0.441-0.976,1.102-1.875,1.588-2.867c0.463-0.979,0.679-2.094,1.129-3.116c0.297-0.695,0.891-1.246,1.248-1.918
		c0.547-1.029,0.88-2.182,1.444-3.228c0.547-0.964,1.338-1.802,1.84-2.8c0.571-1.165,0.778-2.542,1.228-3.791
		c0.587-1.687,1.365-3.273,2.249-4.781c0.389-0.682,0.578-1.491,1.01-2.143c0.697-1.082,1.732-1.929,2.461-2.957
		c0.603-0.821,0.927-1.82,1.473-2.657c0.571-0.892,1.352-1.617,1.901-2.487c0.562-0.913,0.915-1.962,1.498-2.819
		c0.553-0.829,1.309-1.474,1.84-2.264c0.634-0.976,1.145-2.014,1.824-2.868c0.913-1.109,1.977-1.998,2.812-2.97
		c0.389-0.468,0.551-1.107,0.891-1.568c0.736-0.979,1.545-1.765,2.132-2.614c0.605-0.905,0.915-1.927,1.345-2.666
		c0.706-1.24,1.406-1.99,1.725-2.498c0.409-0.67,0.794-1.412,1.44-1.748c1.71-0.894,3.824-0.242,4.719,3.446
		c0.211,0.856,0.418,2.577,0.292,4.699c-0.074,1.065-0.049,2.403-0.454,3.509c-0.416,1.147-1.305,2.043-2.328,3.022
		c-0.544,0.531-1.671,1.476-3.347,2.688c-1.113,0.826-2.558,1.721-3.817,3.033c-0.915,0.949-1.489,2.301-2.362,3.518
		c-0.902,1.239-2.009,2.434-3.088,3.738c-1.073,1.262-1.95,2.734-3.068,4.099c-0.837,1-1.892,1.893-2.666,2.995
		c-0.823,1.166-1.368,2.53-2.047,3.813c-0.756,1.4-1.788,2.651-2.618,4.021c-0.52,0.848-0.877,1.783-1.496,2.571
		c-0.621,0.77-1.46,1.426-2.045,2.215c-0.652,0.887-1.039,1.905-1.543,2.849c-0.589,1.161-1.269,2.267-1.656,3.479
		c-0.288,0.852-0.238,1.835-0.486,2.665c-0.252,0.87-0.778,1.604-1.122,2.397c-0.178,0.418-0.218,1.309-0.616,2.359
		c-0.304,0.849-0.985,1.758-1.352,2.926c-0.265,0.802-0.29,1.753-0.587,2.656c-0.398,1.149-1.046,2.29-1.514,3.544
		c-0.522,1.369-0.668,2.888-1.035,4.344c-0.376,1.426-0.794,2.833-1.03,4.244c-0.202,1.333-0.022,2.68-0.22,3.885
		c-0.225,1.644-0.619,3.127-0.754,4.419c-0.07,1.617,0.099,2.891,0.092,3.607c0.005,1.347-0.385,3.049-0.279,4.91
		c-0.005,1.443,0.488,2.894,0.688,4.419c0.157,0.759,0.22,1.557,0.288,2.368c0.142,0.775,0.274,1.572,0.468,2.35
		c0.486,1.411,1.246,2.674,2.002,3.81c0.281,0.548,0.589,1.049,0.897,1.547c0.315,0.488,0.551,1.05,0.947,1.422
		c0.875,0.905,1.817,1.529,2.612,2.054c0.376,0.288,0.682,0.615,0.963,0.897c0.306,0.238,0.576,0.449,0.826,0.56
		c1.588,0.897,3.496,0.915,5.036,1.38c0.547,0.147,1.062,0.36,1.568,0.575c0.508,0.201,1.026,0.288,1.53,0.382
		c1.597,0.206,3.077,0.236,4.418,0.169c1.491-0.08,2.845,0.114,4.083,0.135c1.55-0.159,2.85-0.604,4.026-0.715
		c1.815-0.223,3.275-0.413,4.443-0.661c1.354-0.278,2.456-1.236,3.671-1.76c0.954-0.414,1.966-0.691,2.827-1.26
		c0.855-0.542,1.57-1.288,2.384-1.801c1.019-0.727,2.202-1.143,3.226-1.757c1.329-0.85,2.4-1.951,3.536-2.798
		c0.517-0.438,1.172-0.68,1.62-1.143c0.933-0.939,1.586-2.042,2.319-2.886c0.983-1.058,1.991-1.835,2.681-2.63
		c0.803-0.886,1.167-1.783,1.579-2.191c0.796-0.797,1.552-1.287,2.114-1.689c0.972-0.751,1.584-0.856,3.122,0.278
		c1.734,1.265,2.441,2.144,1.759,3.617C237.066,474.161,236.386,474.638,235.667,475.407z" style="opacity: 1;"></path>
	<path class="stblack" d="M429.387,400.919c0.252,0.94,1.19,2.399,1.925,4.466c0.544,1.585,0.814,3.615,1.599,5.685
		c0.772,2.058,2.085,4.105,2.994,6.457c0.808,1.988,1.129,4.322,1.948,6.469c1.334,3.596,3.203,7.028,5.077,10.242
		c1.255,2.207,2.362,4.432,3.801,6.223c2.886,3.376,6.04,5.644,7.839,7.412c1.012,1.066,1.885,2.156,2.753,3.173
		c0.841,1.046,1.642,2.066,2.54,2.893c1.993,1.98,4.191,3.281,6.179,4.546c0.792,0.486,1.514,1.046,2.234,1.595
		c0.749,0.483,1.5,0.95,2.297,1.314c1.462,0.747,3.079,1.007,4.611,1.496c1.597,0.265,3.145,0.724,4.778,1.024
		c0.859,0.173,1.694,0.55,2.576,0.914c0.889,0.29,1.82,0.621,2.805,0.858c1.347,0.314,2.796,0.275,4.317,0.358
		c1.521-0.157,3.131-0.202,4.818-0.543c1.415-0.289,3.385-0.221,5.509-1.106c0.562-0.207,1.134-0.447,1.719-0.705
		c0.574-0.299,1.149-0.663,1.746-1.005c1.188-0.706,2.454-1.344,3.745-2.149c1.055-0.617,2.402-0.774,3.529-1.447
		c1.656-1.142,3.345-2.46,4.994-3.673c0.749-0.531,1.581-0.969,2.427-1.417c0.421-0.225,0.852-0.445,1.264-0.69
		c0.38-0.28,0.753-0.572,1.107-0.887c1.482-1.336,2.702-2.927,3.858-4.506c0.927-1.179,2.335-1.989,3.075-3.291
		c0.661-1.032,1.217-2.109,1.757-3.152c0.47-1.088,0.853-2.188,1.365-3.175c1.089-1.918,2.126-3.772,2.888-5.538
		c0.781-1.899,0.763-4.325,1.379-6.676c0.349-2.413,1.431-4.839,1.761-7.57c0.178-1.177,0.31-2.378,0.376-3.6
		c0.018-1.231,0.047-2.47,0.196-3.715c0.382-2.442,0.778-4.984,0.897-7.508c-0.009-1.869-0.668-3.69-0.821-5.506
		c-0.074-1.096,0.187-2.233,0.013-3.31c-0.364-2.119-1.041-4.12-1.419-6.09c-0.367-2.064-0.103-4.178-0.499-6.042
		c-0.238-1.233-0.906-2.3-1.122-3.412c-0.355-2.082-0.459-4.028-0.92-5.57c-0.486-1.429-1.314-2.769-1.88-4.222
		c-0.648-1.782-0.862-3.773-1.55-5.627c-0.754-1.789-1.955-3.417-2.769-5.223c-0.522-1.23-0.74-2.617-1.296-3.864
		c-0.891-1.889-2.083-3.646-3.086-5.508c-0.913-1.753-1.401-3.762-2.463-5.463c-1.271-1.955-3.178-3.526-4.751-5.258
		c-2.252-2.244-4.006-4.78-5.977-7.144c-0.864-1.079-2.045-1.914-2.825-3.031c-1.293-1.837-2.301-3.894-3.621-5.679
		c-1.053-1.458-2.609-2.459-3.824-3.709c-1.311-1.306-2.213-2.963-3.586-4.142c-1.395-1.26-3.086-2.167-4.42-3.365
		c-1.327-1.102-2.342-2.488-3.624-3.536c-1.539-1.309-3.365-2.173-4.823-3.355c-0.954-0.784-1.804-1.649-2.636-2.494
		c-0.846-0.822-1.714-1.566-2.614-2.213c-0.859-0.607-1.97-0.806-2.8-1.324c-1.766-1.123-3.313-2.273-4.908-3.027
		c-0.846-0.381-1.714-0.63-2.535-0.843c-0.841-0.175-1.638-0.307-2.321-0.518c-2.281-0.695-3.763-1.514-4.721-1.785
		c-1.28-0.288-2.636-0.488-3.493-1.328c-2.202-2.186-2.693-6.102,2.789-9.457c1.289-0.77,4.069-1.963,8.046-2.612
		c1.961-0.254,4.4-0.655,6.73-0.196c2.445,0.421,4.591,1.966,6.93,3.705c1.282,0.898,3.502,2.984,6.294,6.056
		c1.941,1.999,3.714,4.918,6.359,7.35c1.851,1.837,4.263,3.362,6.543,5.311c2.209,2.106,4.263,4.619,6.37,7.214
		c2.011,2.575,4.449,4.945,6.352,7.867c1.455,2.118,2.571,4.538,3.972,6.759c1.548,2.31,3.621,4.297,5.219,6.657
		c1.84,2.525,3.163,5.402,4.638,8.158c0.954,1.686,2.081,3.279,2.747,5.117c0.641,1.815,0.92,3.795,1.46,5.61
		c0.634,2.026,1.727,3.809,2.571,5.694c0.929,2.342,1.667,4.718,2.877,6.855c0.794,1.537,2.02,2.9,2.776,4.42
		c0.812,1.577,1.053,3.321,1.534,4.94c0.261,0.847,1.208,2.279,1.885,4.392c0.466,1.724,0.585,3.909,1.219,6.228
		c0.439,1.6,1.21,3.273,1.635,5.118c0.578,2.353,0.344,5.002,0.621,7.626c0.362,2.866,0.787,5.853,1.134,8.851
		c0.052,2.973,0.007,5.926-0.061,8.827c0.009,1.367,0.128,2.725,0.234,4.063c0.085,1.338,0.031,2.656-0.09,3.922
		c-0.268,3.47-1.498,6.521-1.991,9.191c-0.931,3.3-1.172,6.06-1.79,7.522c-0.551,1.38-1.307,2.877-2.128,4.482
		c-0.911,1.573-2.006,3.207-3.003,4.992c-0.758,1.367-1.703,2.708-2.551,4.158c-0.448,0.709-0.862,1.456-1.372,2.149
		c-0.531,0.676-1.084,1.35-1.662,2.009c-2.274,2.768-5.473,4.775-8.28,6.922c-1.401,0.944-2.719,1.964-4.013,2.978
		c-1.32,0.955-2.672,1.779-4.004,2.577c-1.158,0.724-2.429,1.221-3.684,1.643c-1.244,0.437-2.432,0.859-3.543,1.319
		c-2.654,0.866-4.825,2.176-6.946,2.55c-1.028,0.232-1.982,0.331-2.814,0.412c-0.841,0.046-1.579,0.013-2.146,0.134
		c-0.963,0.165-1.898,0.362-2.818,0.577c-0.938,0.139-1.86,0.277-2.764,0.411c-1.811,0.355-3.594,0.414-5.315,0.396
		c-1.197,0.035-2.342-0.239-3.446-0.494c-1.1-0.281-2.182-0.449-3.201-0.76c-3.23-0.748-6.298-1.192-8.932-2.215
		c-2.935-1.121-5.225-2.807-7.344-4.143c-1.3-0.912-2.614-1.617-3.765-2.385c-1.143-0.777-2.211-1.504-3.14-2.269
		c-1.359-1.268-2.501-2.472-3.471-3.592c-0.938-1.152-1.757-2.174-2.576-3.009c-1.806-1.982-4.015-3.574-5.783-5.536
		c-1.444-1.486-2.355-3.348-3.707-4.835c-1.237-1.525-2.881-2.75-4.006-4.304c-1.476-1.992-2.362-4.286-3.5-6.313
		c-1.514-2.676-3.232-5.095-4.535-7.56c-0.646-1.163-0.826-2.508-1.473-3.575c-1.35-2.19-2.895-4.127-3.916-6.083
		c-1.314-2.549-1.905-5.009-2.717-6.925c-0.873-2.198-1.937-3.769-2.229-4.91c-0.63-2.177-0.558-4.051-0.655-5.397
		c-0.085-2.488,0.412-3.603,3.574-4.204c3.547-0.686,5.407-0.686,6.586,1.55C429.011,397.908,428.925,399.241,429.387,400.919z" style="opacity: 1;"></path>
	<path class="stblack" d="M306.942,310.472c-0.605,0.1-1.237,0.063-1.79,0.26c-0.839,0.193-1.5,0.679-2.216,0.946
		c-0.857,0.275-1.66,0.599-2.436,0.881c-0.657,0.4-1.156,0.877-1.75,1.149c-1.399,0.859-2.564,1.326-3.129,0.952
		c-0.513-0.338-0.47-1.405,0.18-3.073c0.342-0.762,0.985-1.505,1.665-2.429c0.481-0.551,1.026-1.154,1.665-1.727
		c0.52-0.516,1.242-0.762,1.896-1.19c0.628-0.416,1.296-0.819,2.045-1.093c0.814-0.35,1.698-0.53,2.596-0.686
		c0.906-0.214,1.613-0.396,2.227-0.4c0.906-0.034,1.566,0.024,2.238,0.124c0.639,0.082,1.314,0.008,2.229,0.134
		c0.493,0.075,1.046,0.244,1.719,0.329c0.799,0.119,1.584,0.25,2.335,0.431c0.906,0.27,1.728,0.699,2.524,1.036
		c0.864,0.472,1.743,0.757,2.445,1.313c0.763,0.527,1.372,1.15,1.898,1.744c0.43,0.425,0.841,0.798,1.109,1.258
		c0.517,0.752,0.765,1.477,0.81,2.029c0.061,0.539-0.054,0.88-0.319,1.044c-0.493,0.299-1.111-0.118-2.157-0.596
		c-0.315-0.12-0.673-0.255-1.064-0.404c-0.421-0.109-0.85-0.236-1.262-0.424c-0.738-0.261-1.424-0.786-2.353-1.039
		c-0.691-0.245-1.498-0.272-2.274-0.459c-0.799-0.232-1.638-0.528-2.528-0.709c-0.679-0.061-1.233,0.075-1.678,0.045
		c-1.093,0.073-1.71-0.138-2.672,0.042C308.371,310.031,307.763,310.259,306.942,310.472z" style="opacity: 1;"></path>
	<path class="stblack" d="M331.006,311.629c-0.747,0.41-1.518,0.754-2.18,1.238c-1.012,0.636-1.665,1.584-2.526,2.223
		c-0.857,0.875-1.919,1.521-2.596,2.359c-0.751,0.751-1.163,1.586-1.698,2.232c-1.397,1.675-2.326,2.838-3.021,2.644
		c-0.569-0.15-0.855-1.477-0.493-3.69c0.252-1.01,0.598-2.243,1.273-3.5c0.389-0.843,0.778-1.796,1.417-2.644
		c0.511-0.741,1.12-1.453,1.808-2.134c0.637-0.673,1.224-1.472,2.015-2.067c0.844-0.697,1.775-1.328,2.771-1.887
		c0.981-0.624,1.741-1.132,2.461-1.413c1.048-0.456,1.844-0.687,2.684-0.89c0.794-0.192,1.552-0.609,2.715-0.834
		c0.619-0.138,1.35-0.215,2.191-0.419c1.023-0.159,2.02-0.374,3.003-0.489c1.208-0.022,2.378,0.031,3.482,0.115
		c1.233,0.177,2.42,0.144,3.482,0.471c1.122,0.332,2.146,0.639,3.012,1.091c0.688,0.316,1.336,0.536,1.88,0.832
		c1.88,1.219,2.735,2.249,2.456,2.793c-0.243,0.491-1.233,0.426-2.794,0.224c-0.924-0.108-2.126,0.018-3.37-0.154
		c-1.086,0.015-2.22-0.382-3.513-0.295c-0.495,0.007-1.005,0.053-1.521,0.092c-0.517,0.09-1.041,0.191-1.577,0.229
		c-1.127,0.025-2.306,0.142-3.52,0.284c-0.886,0.243-1.536,0.614-2.117,0.78c-1.374,0.561-2.234,0.642-3.397,1.302
		C332.691,310.449,331.993,310.977,331.006,311.629z" style="opacity: 1;"></path>
	<path class="stblack" d="M395.896,246.693c1.907,1.621,2.299,3.883,2.409,5.606c0.144,2.595-0.36,4.863-1.109,6.864
		c-0.929,2.309-2.234,4.189-3.469,5.791c-1.197,1.55-2.348,2.875-3.498,3.86c-3.032,2.544-5.29,3.279-5.52,2.919
		c-0.272-0.395,1.122-1.719,3.091-4.14c0.94-1.139,2.029-2.516,3.046-4.195c0.641-1.095,1.219-2.324,1.768-3.624
		c0.459-1.092,0.909-2.24,1.188-3.455c0.261-1.159,0.344-2.376,0.27-3.488c-0.063-1.228-0.4-2.325-0.996-2.777
		c-0.569-0.495-1.428-0.501-2.234-0.435c-1.219,0.114-2.254,0.426-3.302,0.826c-1.08,0.455-2.175,1.001-3.727,1.734
		c-0.835,0.396-1.822,0.799-2.967,1.366c-1.363,0.687-2.697,1.358-3.997,2.013c-1.606,0.763-3.201,1.421-4.715,2.081
		c-1.694,0.74-3.3,1.459-4.838,2.043c-1.633,0.612-3.194,1.06-4.595,1.475c-1.116,0.3-2.103,0.654-3.046,0.826
		c-3.34,0.696-5.396,0.517-5.441,0.099c-0.056-0.413,1.374-0.808,3.743-1.782c1.39-0.599,3.077-1.429,5.057-2.358
		c1.674-0.762,3.586-1.531,5.596-2.518c1.552-0.763,3.14-1.697,4.854-2.561c1.831-0.868,3.741-1.773,5.709-2.706
		c1.46-0.736,2.56-1.44,3.545-1.938c1.208-0.613,2.173-1.056,3.109-1.479c1.012-0.429,2.029-0.861,3.437-1.173
		c0.751-0.177,1.635-0.35,2.76-0.309C393.118,245.307,394.584,245.595,395.896,246.693z" style="opacity: 1;"></path>
	<path class="stblack" d="M247.829,289.847c-0.209-1.029-0.151-2.095-0.31-3.095c-0.288-1.421-0.866-2.682-1.086-3.98
		c-0.409-1.43-0.495-2.917-0.814-4.187c-0.396-1.174-0.918-2.154-1.14-3.155c-0.821-2.421-1.116-4.27-0.425-4.875
		c0.63-0.548,2.105,0.033,4.218,1.721c0.956,0.824,1.748,2.047,2.798,3.386c0.675,0.87,1.273,1.856,1.88,2.942
		c0.511,0.917,0.859,1.939,1.208,2.987c0.362,0.998,0.871,2.008,1.188,3.095c0.292,1.201,0.448,2.469,0.702,3.742
		c0.241,1.293,0.423,2.297,0.513,3.16c0.124,1.283,0.013,2.225-0.018,3.189c-0.018,0.92,0.112,1.869,0.139,3.191
		c-0.009,0.711-0.133,1.529-0.112,2.502c0.038,1.161,0.121,2.295,0.058,3.395c-0.054,1.346-0.288,2.633-0.459,3.861
		c-0.155,1.376-0.259,2.684-0.513,3.888c-0.247,1.275-0.702,2.423-1.012,3.465c-0.243,0.819-0.409,1.577-0.675,2.236
		c-0.985,2.353-2.042,3.62-2.87,3.434c-0.729-0.163-0.936-1.293-1.206-3.231c-0.169-1.14-0.502-2.567-0.578-4.163
		c-0.034-1.344,0.142-2.815,0.153-4.423c-0.045-1.246-0.268-2.57-0.286-3.927c-0.043-1.426,0.263-2.917,0.202-4.446
		c-0.054-1.145-0.324-2.044-0.407-2.8c-0.241-1.847-0.081-2.909-0.371-4.539C248.441,292.342,248.083,291.297,247.829,289.847z" style="opacity: 1;"></path>
	<path class="stblack" d="M327.382,364.946c-1.48-0.143-2.89-0.468-4.213-0.903c-0.958-0.29-1.95-0.436-2.836-0.784
		c-0.886-0.342-1.754-0.685-2.573-1.065c-0.978-0.396-1.777-1.032-2.569-1.582c-0.774-0.562-1.516-1.102-2.22-1.613
		c-1.262-1.098-2.463-1.978-3.381-2.884c-2.175-2.588-3.138-4.331-2.702-4.759c0.405-0.401,2,0.272,4.281,1.693
		c1.093,0.63,2.393,1.376,3.869,2.224c0.956,0.521,2.094,0.845,3.178,1.381c0.897,0.495,1.905,0.804,2.926,1.187
		c0.497,0.161,0.994,0.356,1.516,0.47c0.529,0.088,1.059,0.181,1.59,0.301c0.587,0.116,1.167,0.331,1.772,0.426
		c0.607,0.074,1.221,0.148,1.842,0.225c1.266,0.219,2.258-0.03,3.093,0.003c1.251,0.071,2.144-0.082,3.095-0.165
		c0.92-0.046,1.795-0.426,3.05-0.814c0.693-0.161,1.46-0.449,2.337-0.899c0.515-0.275,1.05-0.501,1.523-0.83
		c0.466-0.34,0.924-0.67,1.395-0.976c1.194-0.67,2.175-1.589,3.201-2.362c1.05-0.976,1.939-2.028,2.816-2.967
		c0.817-1.085,1.799-1.957,2.441-2.929c0.515-0.757,0.933-1.484,1.392-2.097c1.478-2.278,2.515-3.66,3.086-3.465
		c0.484,0.163,0.297,1.448-0.193,3.736c-0.346,1.313-0.805,3.009-1.692,4.819c-0.837,1.481-1.901,3.057-3.266,4.621
		c-0.936,1.306-2.139,2.541-3.451,3.778c-1.521,1.129-3.176,2.24-5.052,3.066c-0.684,0.342-1.269,0.716-1.822,1.007
		c-0.574,0.252-1.091,0.482-1.579,0.659c-1.194,0.454-2.144,0.734-3.1,0.85c-0.947,0.134-1.847,0.376-2.98,0.463
		c-0.614,0.056-1.293,0.119-2.076,0.19c-0.391,0.034-0.812,0.069-1.262,0.106C328.372,365.045,327.895,364.996,327.382,364.946z" style="opacity: 1;"></path>
	<path class="stblack" d="M239.065,504.585c0.556,2.908,0.922,5.802,1.66,8.529c0.466,1.991,1.21,3.845,1.793,5.703
		c0.74,1.796,1.356,3.593,2.067,5.287c0.812,1.98,1.534,3.928,2.382,5.733c0.751,1.856,1.656,3.542,2.519,5.151
		c1.725,3.08,3.653,5.607,5.239,7.87c4.155,5.889,7.135,9.223,6.487,9.992c-0.268,0.322-1.235,0.013-2.821-0.874
		c-1.631-0.838-3.72-2.424-6.262-4.6c-1.154-1.076-2.346-2.339-3.646-3.705c-1.208-1.435-2.506-2.994-3.813-4.706
		c-0.819-1.131-1.669-2.306-2.549-3.519c-0.828-1.248-1.629-2.574-2.443-3.945c-1.266-2.358-2.477-4.9-3.549-7.597
		c-1.125-2.548-2.153-5.241-3.041-8.06c-0.936-3.121-1.597-6.403-2.225-9.752c-0.614-3.403-1.057-6.08-1.273-8.359
		c-0.277-3.383-0.268-5.848-0.261-8.404c-0.045-2.439-0.106-4.97-0.005-8.488c0.083-1.891,0.274-4.062,0.479-6.652
		c0.207-3.087,0.4-6.117,0.832-9.037c0.484-3.566,1.275-6.96,1.995-10.199c0.817-3.624,1.638-7.056,2.652-10.194
		c1.08-3.317,2.328-6.303,3.507-8.97c0.918-2.098,1.71-4.04,2.634-5.692c3.212-5.965,6.188-8.797,6.843-8.33
		c0.648,0.432-0.666,3.058-2.27,7.875c-0.929,2.843-1.824,6.471-2.949,10.617c-0.942,3.501-2.11,7.381-2.989,11.68
		c-0.65,3.331-1.055,6.906-1.554,10.605c-0.553,3.885-1.255,7.933-1.534,12.15c-0.225,3.156,0.029,5.662,0.002,7.767
		c0.072,5.172,0.034,8.039,0.493,12.633C237.736,497.57,238.341,500.519,239.065,504.585z" style="opacity: 1;"></path>
	<path class="stblack" d="M515.688,499.328c0.2-2.119,0.484-4.196,0.601-6.228c0.207-2.938-0.036-5.755,0.074-8.421
		c0.153-3.116,0.295-6.024,0.425-8.657c0.009-2.55-0.263-4.823-0.18-6.831c0.022-5.199,0.344-8.422,1.257-8.595
		c0.821-0.156,2.058,2.322,3.475,6.791c0.576,2.129,1.021,4.719,1.59,7.658c0.279,1.906,0.673,3.958,0.924,6.148
		c0.252,1.843,0.157,3.78,0.283,5.788c0.117,1.921,0.299,3.915,0.243,5.962c-0.043,2.255-0.153,4.576-0.373,6.938
		c-0.193,2.4-0.193,4.301-0.407,5.885c-0.331,2.351-0.738,4.035-1.028,5.805c-0.283,1.688-0.58,3.443-0.99,5.886
		c-0.209,1.315-0.657,2.795-1.035,4.591c-0.432,2.143-0.756,4.267-1.345,6.282c-0.335,1.232-0.702,2.434-1.064,3.608
		c-0.421,1.164-0.835,2.304-1.237,3.419c-0.812,2.513-1.784,4.866-2.733,7.026c-1.107,2.257-2.342,4.25-3.491,6.02
		c-0.978,1.366-1.705,2.692-2.623,3.735c-0.859,0.914-1.644,1.704-2.346,2.364c-0.664,0.681-1.491,1.084-2.058,1.444
		c-1.201,0.679-1.943,0.852-2.216,0.526c-0.238-0.286-0.065-0.883,0.403-1.745c0.234-0.432,0.54-0.93,0.909-1.489
		c0.369-0.558,0.67-1.327,1.08-2.09c0.472-0.913,0.972-1.93,1.377-3.169c0.418-1.226,1.021-2.423,1.482-3.864
		c0.421-1.19,0.972-2.386,1.496-3.678c0.463-1.323,0.949-2.708,1.455-4.15c0.652-2.281,1.113-4.766,1.743-7.308
		c0.639-2.686,1.579-5.425,2.13-8.367c0.461-2.188,0.479-3.981,0.664-5.466c0.544-3.634,0.909-5.64,1.219-8.919
		C515.609,504.455,515.461,502.286,515.688,499.328z" style="opacity: 1;"></path>
	<path class="stblack" d="M494.306,414.583c-0.508-0.386-1.615-0.793-2.654-1.657c-0.814-0.663-1.631-1.652-2.627-2.549
		c-0.99-0.889-2.247-1.664-3.343-2.734c-0.911-0.923-1.604-2.155-2.49-3.198c-1.494-1.729-3.1-3.37-4.645-4.945
		c-1.05-1.075-1.919-2.266-2.958-3.136c-2.011-1.683-4.051-2.811-5.183-3.858c-1.307-1.206-2.204-2.589-3.203-3.698
		c-1.14-1.265-2.366-2.222-3.43-3.229c-0.839-0.794-1.473-1.726-2.303-2.439c-1.554-1.326-3.291-2.406-4.865-3.926
		c-0.835-0.804-1.404-1.945-2.227-2.96c-1.122-1.384-2.531-2.72-4.087-4.269c-0.65-0.66-1.345-1.679-2.405-2.637
		c-0.747-0.648-1.557-1.348-2.551-2.21c-0.335-0.835-0.76-1.893-1.201-2.993c-0.261-0.699-0.234-1.517-0.499-2.261
		c-0.409-1.143-1.03-2.252-1.419-3.467c-0.344-1.085-0.394-2.302-0.774-3.398c-0.394-1.154-1.048-2.208-1.509-3.318
		c-0.36-0.853-0.457-1.808-0.812-2.638c-0.571-1.38-1.471-2.558-2.036-3.792c-0.553-1.231-0.853-2.493-1.368-3.525
		c-0.553-1.097-1.435-2.2-2.198-3.453c-0.749-1.239-1.244-2.737-1.995-4.154c-0.675-1.221-1.575-2.357-2.234-3.657
		c-0.695-1.246-1.201-2.644-1.959-3.881c-0.533-0.938-1.476-1.528-2.108-2.342c-0.394-0.48-0.567-1.137-0.956-1.61
		c-0.783-0.917-1.849-1.486-2.56-2.331c-0.733-0.915-1.341-1.845-2.101-2.538c-0.495-0.464-1.136-0.684-1.579-1.103
		c-0.871-0.663-1.575-1.403-2.299-1.848c-0.661-0.441-1.559-0.446-2.335-0.734c-0.943-0.343-1.799-1.082-2.848-1.246
		c-1.017-0.173-2.069-0.297-3.106-0.261c-0.695-0.027-1.379-0.369-2.099-0.441c-1.098-0.042-2.164,0.373-3.257,0.396
		c-0.994,0.161-2.056,0.172-3.064,0.441c-1.095,0.522-2.013,1.425-2.852,2.224c-0.544,0.593-1.098,1.113-1.671,1.591
		c-0.538,0.528-0.992,1.145-1.514,1.668c-0.225,0.248-0.425,0.513-0.587,0.811c-0.137,0.323-0.277,0.634-0.479,0.897
		c-0.661,0.856-1.665,1.513-2.135,2.56c-0.396,0.824-0.686,1.658-0.857,2.556c-0.227,0.925-0.727,1.755-0.956,2.658
		c-0.2,0.957,0.068,2.013-0.047,2.936c-0.09,0.896-0.493,1.737-0.416,2.646c0.034,1.093,0.292,2.147,0.245,3.15
		c-0.027,1.326-0.153,2.646-0.072,3.856c0.054,0.577,0.4,1.103,0.481,1.633c0.236,1.134,0.333,2.219,0.652,3.155
		c0.349,0.985,0.978,1.788,1.298,2.514c0.605,1.21,0.913,2.135,1.185,2.637c0.369,0.653,0.81,1.304,0.751,1.997
		c-0.164,1.796-1.824,3.526-5.576,2.547c-0.875-0.237-2.528-0.933-4.413-2.322c-0.934-0.707-2.209-1.517-2.913-2.675
		c-0.706-1.206-0.945-2.71-1.102-4.378c-0.04-0.449-0.079-1.106-0.081-1.951c0.065-0.868,0.171-1.925,0.333-3.133
		c0.211-1.63,0.646-3.515,0.963-5.653c0.196-1.539-0.189-3.226,0.144-5.044c0.245-1.848,0.754-3.747,1.602-5.678
		c0.4-0.939,0.619-1.941,1.109-2.894c0.484-0.955,0.987-1.92,1.563-2.852c0.853-1.384,2.317-2.423,3.318-3.714
		c0.619-0.631,1.248-1.268,1.838-1.959c0.598-0.686,1.188-1.404,1.975-1.9c0.823-0.588,1.696-1.124,2.578-1.615l2.843-1.069
		c1.131-0.533,2.353-0.793,3.574-0.977c1.212-0.199,2.459,0.273,3.608,0.333c1.3,0.017,2.558-0.013,3.813,0.133
		c1.548,0.075,2.956,0.604,4.431,0.76c1.057,0.061,2.146,0.021,3.142,0.287c1.032,0.31,1.977,0.726,2.872,1.292
		c0.477,0.271,1.507,0.519,2.722,1.211c1.039,0.497,1.773,1.62,2.935,2.484c0.781,0.615,1.849,1.055,2.591,1.866
		c0.983,1.014,1.844,2.289,2.751,3.499c0.96,1.344,2.247,2.522,3.268,3.887c0.96,1.355,1.766,2.82,2.735,4.109
		c0.857,1.24,1.939,2.308,2.679,3.49c0.994,1.619,1.543,3.285,2.27,4.568c0.902,1.615,1.748,2.796,2.13,3.541
		c0.709,1.404,1.194,3.326,1.997,5.33c0.639,1.523,1.482,3.092,2.13,4.803c0.648,1.746,0.909,3.695,1.437,5.506
		c0.472,1.725,1.217,3.328,1.687,4.943c0.432,1.42,0.508,2.888,0.812,4.162c0.07,0.368,0.166,0.693,0.243,0.931
		c0.227,0.225,0.43,0.426,0.619,0.613c0.205,0.206,0.517,0.535,0.724,0.788c0.704,0.858,1.08,1.745,1.514,2.187
		c1.419,1.519,3.007,2.669,4.296,3.93c0.893,0.875,1.536,1.91,2.308,2.733c1.212,1.286,2.587,2.205,3.671,3.228
		c1.206,1.136,2.108,2.345,3.039,3.329c1.174,1.246,2.389,2.128,3.275,3.084c1.368,1.477,2.22,2.857,3.122,3.778
		c1.035,1.061,2.319,1.848,3.412,2.8c0.855,0.745,1.532,1.657,2.387,2.362c0.844,0.69,1.869,1.164,2.668,1.848
		c1.037,0.876,1.808,1.989,2.731,2.887c1.212,1.192,2.558,2.127,3.714,3.128c0.551,0.48,0.911,1.141,1.469,1.545
		c1.147,0.838,2.42,1.359,3.385,2.064c1.253,0.925,2.18,1.903,3.084,2.551c1.028,0.745,1.968,1.104,2.436,1.437
		c0.891,0.657,1.485,1.568,1.892,1.935c0.756,0.751,0.99,1.414,0.247,3.266c-0.848,2.068-1.471,3.04-3.489,2.397
		C495.689,415.962,495.253,415.278,494.306,414.583z" style="opacity: 1;"></path>
	<path class="stblack" d="M390.104,344.228c0.427-1.047,1.075-1.97,1.577-2.92c0.729-1.372,1.338-2.756,2.22-3.909
		c0.999-1.351,2.276-2.385,3.392-3.321c1.053-0.917,2.103-1.752,3.167-2.232c1.444-0.594,2.789-0.699,3.666-0.499
		c0.895,0.237,1.275,0.642,1.255,1.01c-0.081,0.749-1.131,1.267-2.227,2.686c-0.544,0.626-1.228,1.384-1.88,2.413
		c-0.43,0.648-0.783,1.454-1.215,2.253c-0.378,0.659-0.832,1.333-1.206,2.095c-0.367,0.724-0.619,1.547-0.981,2.332
		c-0.385,0.877-0.862,1.746-1.246,2.689c-0.364,0.966-0.569,1.752-0.801,2.396c-0.373,0.944-0.715,1.615-0.99,2.342
		c-0.236,0.7-0.387,1.453-0.607,2.489c-0.144,0.554-0.324,1.186-0.45,1.962c-0.099,0.925-0.094,1.834-0.139,2.701
		c-0.07,1.059-0.184,2.077-0.162,3.044c0.025,1.084,0.234,2.06,0.346,2.985c0.162,0.958,0.247,1.88,0.475,2.675
		c0.193,0.613,0.452,1.138,0.659,1.628c0.688,1.799,1.379,2.987,0.933,3.599c-0.331,0.465-1.473,0.257-3.124-0.925
		c-0.936-0.698-2.204-1.689-3.059-3.217c-0.774-1.274-1.14-2.855-1.552-4.512c-0.299-1.281-0.724-2.652-0.769-4.09
		c-0.09-1.52,0.218-3.059,0.391-4.634c0.144-1.172,0.054-2.138,0.191-2.92c0.313-1.928,0.722-2.93,1.165-4.604
		C389.391,346.844,389.532,345.695,390.104,344.228z" style="opacity: 1;"></path>
	<path class="stblack" d="M397.823,372.156c-0.081-1.371,0.151-2.707,0.247-3.998c0.144-1.864,0.238-3.68,0.682-5.354
		c0.529-1.948,1.451-3.652,2.297-5.148c0.799-1.453,1.59-2.769,2.558-3.7c2.573-2.472,4.883-2.614,5.178-1.986
		c0.373,0.653-0.592,1.87-1.491,3.955c-0.445,0.974-0.958,2.137-1.347,3.543c-0.263,0.901-0.358,1.947-0.544,3.006
		c-0.151,0.897-0.367,1.833-0.468,2.831c-0.076,0.961-0.034,1.965-0.056,2.987c-0.011,1.125-0.121,2.291-0.043,3.479
		c0.061,1.206,0.27,2.128,0.349,2.912c0.146,1.155,0.151,2.017,0.319,2.869c0.16,0.81,0.459,1.616,0.886,2.638
		c0.236,0.533,0.45,1.19,0.875,1.744c0.506,0.679,1.077,0.985,1.386,1.107c0.205,0.051,0.351,0.181,0.623,0.16
		c0.085,0.043,0.335-0.002,0.585-0.061l0.72-0.141c0.954-0.329,1.611-0.77,2.076-1.253c0.49-0.518,0.942-1.267,1.147-2.137
		c0.153-0.681,0.133-1.374,0.151-2.024c0.094-2.363-0.063-3.996,0.601-4.299c0.544-0.265,1.498,0.653,2.513,2.735
		c0.565,1.224,1.377,2.904,1.192,5.276c-0.126,1.972-1.467,4.396-3.568,5.834c-0.776,0.504-1.633,1.103-2.492,1.425
		c-0.441,0.17-0.886,0.342-1.336,0.516c-0.502,0.147-1.192,0.265-1.82,0.286c-1.408,0.029-2.823-0.468-3.963-1.188
		c-1.077-0.756-1.955-1.656-2.625-2.569c-1.014-1.35-1.786-2.375-2.207-3.319c-1.026-2.328-1.199-3.662-1.66-5.745
		C398.345,375.411,397.938,374.066,397.823,372.156z" style="opacity: 1;"></path>
	<path class="stblack" d="M235.304,430.802c-0.933,1.338-2.072,2.495-2.994,3.749c-1.334,1.81-2.445,3.668-3.72,5.265
		c-1.482,1.861-3.113,3.421-4.449,4.934c-1.293,1.463-2.299,2.888-3.394,3.966c-2.85,2.806-4.922,4.208-5.664,3.689
		c-0.686-0.478-0.232-2.581,1.134-5.764c0.648-1.51,1.602-3.192,2.634-5.129c0.668-1.253,1.309-2.655,2.123-4.046
		c0.684-1.17,1.516-2.314,2.294-3.563c0.745-1.195,1.426-2.492,2.249-3.741c0.904-1.376,1.957-2.709,2.951-4.13
		c1.005-1.443,1.714-2.632,2.411-3.568c1.037-1.387,1.928-2.297,2.744-3.326c0.781-0.98,1.485-2.074,2.555-3.534
		c0.576-0.784,1.329-1.624,2.096-2.721c0.454-0.676,0.906-1.346,1.336-1.982c0.418-0.3,0.832-0.599,1.201-0.833
		c0.425-0.284,0.841-0.562,1.226-0.821l-0.623,0.211c-0.236,0.081-0.049,0.004-0.094,0.015l0.058-0.06l0.117-0.115l0.245-0.227
		c0.954-0.973,2.033-2.221,2.868-3.493c0.931-1.455,1.622-2.964,2.319-4.355c0.713-1.48,1.446-2.856,1.946-4.17
		c0.403-1.031,0.619-2.013,0.904-2.884c1.039-3.112,1.629-5.133,2.522-5.167c0.686-0.029,1.316,1.545,1.59,4.465
		c0.166,1.707,0.378,3.935-0.081,6.428c-0.353,2.111-1.246,4.323-2.254,6.698c-0.79,1.837-1.548,3.859-2.924,5.779
		c-0.342,0.463-0.686,0.921-1.134,1.39c-0.227,0.237-0.405,0.458-0.697,0.713l-0.412,0.371l-0.211,0.186l-0.106,0.092l-0.787,0.566
		l-0.108,0.029l-0.101,0.049l-0.052,0.044l-0.274,0.369c-0.191,0.266-0.387,0.54-0.583,0.814c-0.96,1.418-1.509,2.689-2.137,3.65
		c-1.545,2.359-2.558,3.553-3.95,5.655C237.327,427.435,236.607,428.936,235.304,430.802z" style="opacity: 1;"></path>
	<path class="stblack" d="M155.616,121.998c-2.461-2.738-4.715-5.561-7.036-8.192c-3.356-3.802-6.699-7.345-9.695-10.835
		c-3.489-4.067-6.561-8.014-9.445-11.506c-2.785-3.377-5.41-6.31-7.511-9.001c-5.473-6.962-8.458-11.483-7.868-11.917
		c0.524-0.382,3.882,2.495,9.42,7.843c2.609,2.531,5.61,5.67,9.042,9.193c2.22,2.28,4.667,4.678,7.162,7.306
		c2.065,2.242,4.229,4.588,6.474,7.025c2.173,2.306,4.422,4.694,6.735,7.147c2.472,2.77,5.016,5.624,7.616,8.539
		c2.668,2.936,4.764,5.243,6.532,7.189c2.578,2.93,4.35,5.146,6.278,7.388c1.874,2.106,3.822,4.296,6.534,7.344
		c1.44,1.655,3.1,3.561,5.084,5.838c2.423,2.66,4.796,5.265,7.106,7.801c2.74,3.163,5.387,6.219,7.92,9.142
		c2.854,3.255,5.563,6.342,8.093,9.226c2.632,3.087,4.973,6.028,7.133,8.643c1.698,2.056,3.311,3.888,4.674,5.601
		c4.874,6.132,7.49,9.935,6.993,10.383c-0.439,0.394-3.057-1.991-7.515-6.251c-2.621-2.503-5.97-5.568-9.63-9.327
		c-3.091-3.172-6.357-6.875-10.019-10.77c-2.83-3.012-5.952-6.085-9.042-9.447c-3.248-3.533-6.476-7.371-9.931-11.208
		c-2.598-2.859-4.807-4.984-6.557-6.889c-4.251-4.726-6.604-7.34-10.406-11.566C161.685,128.428,159.046,125.816,155.616,121.998z" style="opacity: 1;"></path>
	<path class="stblack" d="M110.905,159.927c-3.147-2.29-6.112-4.692-9.083-6.913c-4.296-3.208-8.532-6.132-12.381-9.114
		c-4.485-3.458-8.525-6.871-12.241-9.891c-3.606-2.902-6.928-5.413-9.657-7.779c-7.135-6.122-11.029-10.19-10.599-10.722
		c0.427-0.53,4.517,1.909,11.26,6.361c3.203,2.108,6.928,4.769,11.215,7.697c2.776,1.889,5.763,3.922,8.925,6.074
		c2.612,1.878,5.344,3.844,8.183,5.885c2.744,1.915,5.587,3.896,8.505,5.932c3.16,2.32,6.413,4.706,9.74,7.147
		c3.403,2.442,6.076,4.36,8.332,5.98c3.313,2.449,5.641,4.334,8.134,6.215c2.407,1.753,4.91,3.574,8.392,6.111
		c1.871,1.367,3.97,3.015,6.564,4.872c3.1,2.197,6.139,4.348,9.094,6.442c3.547,2.633,6.978,5.18,10.257,7.615
		c3.689,2.7,7.189,5.261,10.46,7.653c3.426,2.572,6.525,5.055,9.357,7.247c2.229,1.721,4.314,3.236,6.118,4.682
		c6.46,5.17,10.059,8.449,9.672,8.997c-0.337,0.48-3.583-1.382-9.148-4.763c-3.273-1.987-7.421-4.393-12.054-7.436
		c-3.909-2.568-8.131-5.634-12.797-8.82c-3.608-2.461-7.52-4.935-11.472-7.701c-4.159-2.905-8.359-6.133-12.794-9.311
		c-3.334-2.361-6.078-4.075-8.314-5.648c-5.45-3.931-8.462-6.104-13.336-9.62C118.592,165.241,115.289,163.12,110.905,159.927z" style="opacity: 1;"></path>
	<path class="stblack" d="M80.352,258.382c-4.092-1.167-8.044-2.516-11.935-3.659c-5.628-1.64-11.074-3.065-16.164-4.608
		c-5.927-1.784-11.382-3.7-16.371-5.267c-4.823-1.521-9.202-2.752-12.941-3.994c-9.724-3.279-15.437-5.449-15.257-6.164
		c0.157-0.624,5.349,0.018,14.038,1.819c4.123,0.844,9.004,2.042,14.538,3.372c3.583,0.852,7.452,1.712,11.517,2.749
		c3.406,0.919,6.969,1.88,10.671,2.878c3.547,0.926,7.22,1.887,10.995,2.873c4.125,1.192,8.374,2.418,12.718,3.673
		c4.418,1.242,7.886,2.219,10.815,3.044c4.328,1.287,7.434,2.346,10.702,3.354c3.129,0.917,6.384,1.872,10.912,3.2
		c2.427,0.738,5.225,1.588,8.566,2.603c4.004,1.136,7.927,2.246,11.744,3.328c4.625,1.423,9.096,2.798,13.37,4.114
		c4.791,1.45,9.339,2.827,13.586,4.112c4.474,1.416,8.579,2.845,12.3,4.081c2.926,0.973,5.628,1.789,8.017,2.625
		c8.548,2.995,13.458,5.058,13.269,5.701c-0.164,0.566-4.175-0.245-11.13-1.794c-4.087-0.911-9.227-1.952-15.104-3.451
		c-4.96-1.264-10.43-2.909-16.398-4.521c-4.611-1.248-9.542-2.403-14.628-3.825c-5.342-1.496-10.862-3.267-16.598-4.923
		c-4.299-1.222-7.756-1.989-10.637-2.789c-7.063-2.031-10.97-3.154-17.289-4.971C90.234,260.991,86.057,260.007,80.352,258.382z" style="opacity: 1;"></path>
	<path class="stblack" d="M69.355,322.655c-3.894-0.335-7.688-0.876-11.395-1.227c-5.358-0.504-10.516-0.876-15.37-1.416
		c-5.65-0.655-10.891-1.527-15.656-2.194c-4.602-0.691-8.759-1.106-12.331-1.778c-9.308-1.661-14.74-3.403-14.601-4.06
		c0.058-0.324,1.289-0.467,3.502-0.443c2.202,0.054,5.405,0.198,9.456,0.396c3.833,0.262,8.413,0.575,13.602,0.93
		c3.363,0.195,6.98,0.404,10.81,0.626c3.217,0.262,6.584,0.537,10.079,0.823c3.349,0.226,6.816,0.46,10.379,0.7
		c3.918,0.351,7.952,0.713,12.075,1.084c4.191,0.324,7.484,0.579,10.262,0.795c4.112,0.443,7.099,0.763,10.214,1.1
		c2.976,0.251,6.073,0.513,10.381,0.877c2.317,0.214,4.982,0.459,8.17,0.753c3.806,0.266,7.531,0.528,11.157,0.783
		c4.418,0.408,8.687,0.802,12.767,1.178c4.573,0.389,8.91,0.757,12.963,1.101c4.281,0.414,8.23,0.929,11.805,1.323
		c2.809,0.311,5.387,0.521,7.691,0.815c8.237,1.053,13.035,1.978,12.992,2.647c-0.04,0.587-3.792,0.687-10.331,0.697
		c-3.842,0.008-8.653,0.108-14.214-0.079c-4.692-0.164-9.915-0.58-15.577-0.881c-4.377-0.23-9.022-0.301-13.856-0.617
		c-5.081-0.326-10.367-0.892-15.829-1.313c-4.089-0.297-7.34-0.317-10.077-0.51c-6.721-0.535-10.442-0.832-16.454-1.311
		C78.719,323.213,74.781,323.106,69.355,322.655z" style="opacity: 1;"></path>
	<path class="stblack" d="M270.235,61.832c-1.111-3.122-2.002-6.256-3.034-9.243c-1.489-4.316-3.07-8.401-4.366-12.34
		c-1.507-4.584-2.688-8.944-3.885-12.848c-1.156-3.773-2.339-7.115-3.163-10.084c-2.144-7.735-3.079-12.465-2.414-12.732
		c0.612-0.245,2.576,3.311,5.407,9.603c1.341,2.983,2.787,6.618,4.467,10.717c1.086,2.652,2.324,5.478,3.516,8.518
		c0.96,2.575,1.964,5.27,3.007,8.068c1.03,2.665,2.096,5.424,3.192,8.258c1.109,3.159,2.254,6.412,3.421,9.737
		c1.219,3.364,2.177,6.005,2.987,8.235c1.14,3.331,1.842,5.796,2.677,8.329c0.839,2.402,1.71,4.898,2.922,8.372
		c0.648,1.87,1.309,4.053,2.225,6.618c1.107,3.049,2.193,6.037,3.25,8.943c1.19,3.581,2.342,7.042,3.442,10.353
		c1.257,3.696,2.447,7.201,3.561,10.478c1.125,3.482,2.045,6.746,2.933,9.674c0.697,2.302,1.408,4.383,1.943,6.284
		c1.91,6.802,2.724,10.887,2.092,11.109c-0.553,0.196-1.948-2.679-4.242-7.742c-1.345-2.976-3.122-6.663-4.899-11.041
		c-1.498-3.695-2.942-7.902-4.663-12.396c-1.332-3.474-2.902-7.093-4.326-10.949c-1.496-4.053-2.85-8.362-4.409-12.741
		c-1.188-3.271-2.317-5.786-3.122-7.97c-1.921-5.39-2.983-8.372-4.701-13.194C273.103,69.251,271.785,66.183,270.235,61.832z" style="opacity: 1;"></path>
	<path class="stblack" d="M336.985,54.842c-0.052-3.067,0.187-6.079,0.202-9.005c0.043-4.229-0.018-8.294,0.146-12.133
		c0.225-4.469,0.675-8.624,1.044-12.388c0.304-3.639,0.531-6.919,0.927-9.741c1.057-7.351,2.218-11.642,2.902-11.575
		c0.67,0.064,0.976,3.824,1.062,10.168c0.099,3.013-0.047,6.596,0.022,10.668c0.047,2.631,0.097,5.462,0.151,8.457
		c0.034,2.521-0.092,5.154-0.043,7.895c0.056,2.62,0.112,5.333,0.171,8.12c0,3.072-0.002,6.236-0.002,9.469
		c0.065,3.284,0.117,5.863,0.16,8.041c0.022,3.234-0.103,5.582-0.108,8.036c0.045,2.337,0.092,4.768,0.157,8.153
		c0.036,1.82-0.011,3.919,0.063,6.424c0.112,2.986,0.223,5.911,0.331,8.757c0.079,3.473,0.036,6.839,0.074,10.053
		c0.034,3.6,0.139,7.015,0.117,10.208c-0.038,3.376-0.184,6.502-0.283,9.324c-0.081,2.219-0.079,4.25-0.187,6.071
		c-0.416,6.514-1.019,10.318-1.685,10.318c-0.587,0-0.954-2.928-1.44-8.022c-0.31-2.995-0.794-6.735-1.084-11.077
		c-0.254-3.664-0.29-7.76-0.533-12.19c-0.178-3.425-0.556-7.047-0.718-10.834c-0.171-3.982-0.135-8.148-0.261-12.438
		c-0.112-3.211-0.414-5.743-0.497-7.894c-0.205-5.285-0.169-8.213-0.304-12.947C337.284,62.205,337.032,59.119,336.985,54.842z" style="opacity: 1;"></path>
	<path class="stblack" d="M77.295,430.153c-3.277,1.062-6.561,1.879-9.715,2.8c-4.508,1.358-9.029,2.669-12.974,3.764
		c-4.766,1.365-9.213,2.639-13.244,3.793c-3.905,1.187-7.639,2.192-10.678,2.767c-4.006,0.784-7.05,1.581-9.087,2.322
		c-2.031,0.729-3.093,1.341-3.361,1.059c-0.214-0.214,0.317-1.257,1.923-2.569c1.586-1.329,4.249-2.733,7.666-4.022
		c1.615-0.616,3.41-1.188,5.295-1.8c1.869-0.595,3.813-1.321,5.945-2.14c2.735-1.057,5.65-2.327,8.838-3.523
		c2.681-1.004,5.576-1.923,8.611-2.828c2.787-0.889,5.673-1.809,8.64-2.755c3.28-1.015,6.656-2.061,10.109-3.129
		c3.475-1.181,6.204-2.108,8.507-2.892c3.439-1.096,5.938-1.892,8.545-2.723c2.47-0.835,5.003-1.801,8.525-3.13
		c1.889-0.713,4.096-1.476,6.739-2.516c3.136-1.229,6.195-2.478,9.222-3.56c3.693-1.323,7.326-2.422,10.783-3.516
		c3.873-1.205,7.549-2.366,11.026-3.288c3.678-0.962,7.122-1.699,10.226-2.359c2.436-0.536,4.656-1.06,6.672-1.423
		c7.211-1.275,11.51-1.57,11.652-0.928c0.13,0.584-3.003,1.611-8.442,3.388c-3.196,1.05-7.151,2.494-11.773,3.968
		c-3.9,1.239-8.296,2.471-12.972,4.066c-3.612,1.24-7.364,2.751-11.319,4.208c-4.161,1.526-8.559,2.984-13.008,4.723
		c-3.3,1.32-5.909,2.601-8.163,3.485c-5.549,2.179-8.687,3.177-13.694,4.979C85.08,427.346,81.864,428.663,77.295,430.153z" style="opacity: 1;"></path>
	<path class="stblack" d="M79.111,492.462c-3.077,1.988-6.127,3.854-9.114,5.723c-4.278,2.724-8.3,5.475-12.216,7.896
		c-4.559,2.818-8.943,5.245-12.842,7.557c-3.765,2.234-7.072,4.373-10.052,6.042c-7.758,4.349-12.563,6.625-12.956,6.025
		c-0.362-0.551,3.03-3.536,9.139-8.161c2.897-2.194,6.458-4.675,10.466-7.523c2.591-1.842,5.338-3.883,8.318-5.941
		c2.535-1.691,5.185-3.462,7.938-5.3c2.616-1.788,5.322-3.637,8.102-5.538c3.12-2.04,6.33-4.139,9.612-6.285
		c3.34-2.185,5.945-3.936,8.208-5.319c3.358-2.049,5.889-3.386,8.489-4.849c2.481-1.392,5.023-2.912,8.656-4.866
		c1.957-1.056,4.173-2.132,6.784-3.624c3.104-1.767,6.078-3.617,9.009-5.361c3.583-2.119,7.047-4.168,10.358-6.128
		c3.657-2.289,7.124-4.461,10.365-6.491c3.46-2.096,6.665-4.036,9.56-5.788c2.252-1.417,4.312-2.713,6.161-3.876
		c6.696-4.035,10.759-6.214,11.152-5.661c0.337,0.473-2.326,2.814-7.119,6.708c-2.823,2.279-6.303,5.214-10.561,8.305
		c-3.59,2.613-7.747,5.308-12.198,8.3c-3.442,2.315-7.009,4.892-10.9,7.331c-4.085,2.567-8.498,5.011-13.019,7.587
		c-3.336,1.974-5.977,3.536-8.21,4.858c-5.452,3.128-8.503,4.822-13.28,7.819C86.378,487.53,83.378,489.668,79.111,492.462z" style="opacity: 1;"></path>
	<path class="stblack" d="M149.637,548.654c-1.737,1.34-3.554,2.497-5.223,3.756c-2.407,1.823-4.607,3.709-6.813,5.329
		c-2.562,1.892-5.099,3.472-7.29,5.037c-2.135,1.498-3.93,2.996-5.626,4.122c-4.409,2.942-7.229,4.478-7.709,3.93
		c-0.43-0.494,1.161-2.741,4.301-6.128c1.503-1.585,3.394-3.384,5.554-5.393c1.392-1.304,2.841-2.778,4.474-4.206
		c1.374-1.204,2.875-2.393,4.398-3.662c1.455-1.218,2.904-2.553,4.474-3.818c1.732-1.391,3.581-2.741,5.428-4.167
		c1.874-1.45,3.298-2.656,4.557-3.59c1.869-1.39,3.311-2.291,4.744-3.319c1.368-0.979,2.728-2.079,4.672-3.54
		c1.044-0.788,2.299-1.626,3.718-2.73c1.674-1.338,3.313-2.648,4.908-3.923c1.997-1.483,3.932-2.917,5.781-4.288
		c2.033-1.574,3.966-3.068,5.77-4.464c1.923-1.454,3.797-2.688,5.428-3.876c1.282-0.937,2.407-1.853,3.484-2.592
		c3.835-2.666,6.273-4.026,6.723-3.52c0.391,0.44-0.963,2.085-3.435,4.855c-1.467,1.61-3.241,3.704-5.524,5.874
		c-1.932,1.823-4.242,3.675-6.665,5.767c-1.865,1.634-3.754,3.462-5.862,5.202c-2.222,1.823-4.688,3.539-7.121,5.436
		c-1.813,1.431-3.118,2.73-4.323,3.696c-2.962,2.375-4.694,3.569-7.351,5.678C153.673,545.26,152.055,546.78,149.637,548.654z" style="opacity: 1;"></path>
	<path class="stblack" d="M626.735,366.367c-3.304,0.318-6.564,0.419-9.715,0.691c-4.557,0.394-8.917,0.934-13.055,1.23
		c-4.82,0.345-9.335,0.428-13.413,0.637c-3.943,0.204-7.477,0.537-10.554,0.612c-8.017,0.193-12.812-0.055-12.882-0.768
		c-0.063-0.657,3.894-1.697,10.707-2.911c3.232-0.576,7.117-1.093,11.51-1.724c2.841-0.409,5.891-0.922,9.135-1.338
		c2.729-0.35,5.596-0.603,8.563-0.95c2.841-0.333,5.77-0.76,8.795-1.084c3.329-0.356,6.768-0.608,10.277-0.947
		c3.563-0.343,6.352-0.691,8.716-0.889c3.507-0.295,6.067-0.376,8.728-0.567c2.537-0.183,5.165-0.476,8.831-0.795
		c1.973-0.172,4.249-0.282,6.962-0.543c3.23-0.311,6.386-0.702,9.468-0.975c3.759-0.334,7.403-0.541,10.88-0.815
		c3.891-0.307,7.578-0.673,11.033-0.902c3.651-0.241,7.043-0.34,10.1-0.487c2.402-0.116,4.595-0.299,6.57-0.354
		c7.068-0.196,11.233,0.008,11.296,0.676c0.058,0.586-3.073,1.238-8.55,2.227c-3.219,0.581-7.234,1.408-11.922,2.063
		c-3.954,0.554-8.395,0.931-13.181,1.505c-3.7,0.445-7.603,1.086-11.697,1.528c-4.303,0.465-8.82,0.73-13.453,1.176
		c-3.469,0.354-6.19,0.838-8.512,1.088c-5.7,0.615-8.867,0.805-13.969,1.345C634.648,365.391,631.342,365.923,626.735,366.367z" style="opacity: 1;"></path>
	<path class="stblack" d="M627.855,431.633c-3.282-0.499-6.467-1.2-9.589-1.707c-4.517-0.733-8.874-1.276-12.961-2.002
		c-4.755-0.844-9.155-1.869-13.159-2.664c-3.873-0.768-7.382-1.309-10.383-1.99c-7.821-1.774-12.408-3.189-12.3-3.896
		c0.099-0.653,4.188-0.694,11.094-0.203c3.273,0.233,7.166,0.682,11.58,1.146c2.854,0.299,5.938,0.549,9.184,0.939
		c2.731,0.328,5.572,0.785,8.536,1.174c2.834,0.372,5.781,0.676,8.791,1.101c3.316,0.47,6.714,1.067,10.199,1.598
		c3.536,0.539,6.328,0.884,8.669,1.27c3.473,0.573,5.974,1.121,8.599,1.586c2.504,0.443,5.124,0.803,8.757,1.391
		c1.955,0.316,4.191,0.767,6.883,1.177c3.208,0.488,6.363,0.883,9.42,1.371c3.725,0.597,7.308,1.287,10.747,1.873
		c3.849,0.654,7.513,1.202,10.918,1.826c3.599,0.66,6.91,1.394,9.911,1.999c2.357,0.476,4.53,0.835,6.458,1.265
		c6.899,1.54,10.889,2.757,10.788,3.419c-0.088,0.582-3.284,0.448-8.836,0.067c-3.264-0.224-7.358-0.406-12.063-0.916
		c-3.972-0.431-8.368-1.152-13.15-1.766c-3.698-0.474-7.639-0.807-11.715-1.381c-4.287-0.603-8.73-1.45-13.334-2.152
		c-3.448-0.506-6.206-0.704-8.516-1.029c-5.677-0.797-8.797-1.389-13.874-2.114C635.766,432.624,632.43,432.33,627.855,431.633z" style="opacity: 1;"></path>
	<path class="stblack" d="M593.39,537.718c-2.616-0.926-5.108-2.034-7.594-2.947c-3.588-1.32-7.09-2.432-10.325-3.687
		c-3.768-1.459-7.198-3.047-10.354-4.357c-3.048-1.267-5.844-2.264-8.19-3.33c-6.112-2.775-9.616-4.767-9.378-5.442
		c0.22-0.622,3.622-0.114,9.245,1.288c2.665,0.666,5.799,1.625,9.362,2.667c2.306,0.675,4.809,1.33,7.418,2.145
		c2.195,0.685,4.458,1.51,6.834,2.287c2.272,0.742,4.652,1.432,7.059,2.25c2.65,0.902,5.342,1.938,8.12,2.922
		c2.821,0.998,5.061,1.709,6.921,2.398c2.76,1.024,4.717,1.892,6.798,2.697c1.984,0.768,4.08,1.469,6.971,2.529
		c1.552,0.569,3.311,1.308,5.457,2.068c2.56,0.906,5.093,1.712,7.524,2.597c2.965,1.081,5.79,2.233,8.518,3.264
		c3.055,1.154,5.979,2.177,8.669,3.241c2.848,1.124,5.439,2.284,7.799,3.275c1.856,0.779,3.581,1.419,5.09,2.097
		c5.396,2.423,8.449,4.143,8.224,4.775c-0.198,0.554-2.818-0.005-7.342-1.119c-2.659-0.654-6.019-1.381-9.814-2.508
		c-3.201-0.952-6.696-2.243-10.532-3.482c-2.967-0.957-6.166-1.809-9.425-2.914c-3.428-1.161-6.935-2.583-10.606-3.882
		c-2.751-0.955-4.998-1.517-6.845-2.142c-4.542-1.538-7.002-2.532-11.06-3.917C599.742,539.743,597.036,539.01,593.39,537.718z" style="opacity: 1;"></path>
	<path class="stblack" d="M467.621,77.75c1.509-3.059,3.178-5.963,4.645-8.866c2.119-4.195,4.006-8.294,5.986-12.073
		c2.301-4.398,4.661-8.392,6.678-12.072c1.95-3.556,3.57-6.826,5.162-9.558c4.155-7.116,6.946-11.179,7.589-10.863
		c0.592,0.292-0.655,4.303-3.293,10.907c-1.251,3.131-2.902,6.803-4.733,10.981c-1.183,2.702-2.389,5.641-3.781,8.698
		c-1.172,2.572-2.501,5.215-3.804,7.995c-1.246,2.661-2.461,5.451-3.815,8.268c-1.489,3.101-3.129,6.245-4.73,9.493
		c-1.626,3.298-2.832,5.923-3.936,8.096c-1.64,3.225-2.949,5.507-4.218,7.936c-1.21,2.316-2.378,4.771-4.08,8.147
		c-0.915,1.816-2.049,3.868-3.286,6.378c-1.476,2.991-2.843,5.959-4.272,8.799c-1.739,3.465-3.525,6.763-5.165,9.95
		c-1.835,3.569-3.509,6.988-5.176,10.13c-1.761,3.322-3.502,6.341-5.023,9.094c-1.197,2.163-2.222,4.179-3.239,5.936
		c-3.637,6.286-6.055,9.824-6.656,9.528c-0.529-0.26,0.605-3.345,2.713-8.658c1.239-3.123,2.699-7.073,4.665-11.522
		c1.66-3.753,3.729-7.835,5.819-12.328c1.615-3.473,3.172-7.226,5-11.042c1.923-4.012,4.128-8.102,6.244-12.393
		c1.568-3.221,2.623-5.859,3.66-8.021c2.546-5.312,4.089-8.185,6.377-12.932C464.189,85.191,465.518,82.016,467.621,77.75z" style="opacity: 1;"></path>
	<path class="stblack" d="M538.238,101.835c2.591-3.004,5.291-5.814,7.783-8.657c3.603-4.111,6.933-8.159,10.248-11.849
		c3.86-4.296,7.643-8.151,10.97-11.731c3.214-3.46,5.988-6.67,8.557-9.312c6.692-6.883,10.957-10.749,11.521-10.309
		c0.52,0.406-2.112,4.466-7.065,11.061c-2.346,3.128-5.293,6.764-8.593,10.912c-2.135,2.682-4.373,5.614-6.847,8.639
		c-2.114,2.517-4.33,5.153-6.631,7.888c-2.173,2.638-4.422,5.37-6.735,8.176c-2.627,3.027-5.331,6.144-8.098,9.33
		c-2.778,3.257-4.962,5.815-6.804,7.974c-2.782,3.164-4.906,5.375-7.038,7.751c-2,2.295-4.078,4.682-6.971,8.002
		c-1.572,1.771-3.385,3.81-5.549,6.247c-2.519,2.956-4.987,5.851-7.387,8.669c-3.01,3.367-5.916,6.623-8.698,9.737
		c-3.093,3.502-6.026,6.825-8.768,9.929c-2.94,3.244-5.756,6.164-8.255,8.838c-1.964,2.102-3.702,4.079-5.347,5.778
		c-5.873,6.076-9.551,9.421-10.057,8.982c-0.445-0.385,1.772-3.492,5.749-8.812c2.337-3.127,5.185-7.101,8.719-11.513
		c2.98-3.724,6.494-7.722,10.167-12.157c2.841-3.43,5.716-7.17,8.889-10.927c3.338-3.949,6.993-7.93,10.624-12.145
		c2.704-3.166,4.683-5.802,6.483-7.929c4.469-5.189,6.944-8.058,10.943-12.698C532.187,109.182,534.63,106.023,538.238,101.835z" style="opacity: 1;"></path>
	<path class="stblack" d="M554.312,212.073c-3.689,2.407-7.421,4.587-10.954,6.855c-5.106,3.279-9.92,6.562-14.585,9.484
		c-5.432,3.402-10.626,6.373-15.26,9.178c-4.478,2.712-8.426,5.28-11.96,7.321c-9.202,5.316-14.866,8.167-15.257,7.568
		c-0.36-0.553,3.765-4.03,11.13-9.496c3.491-2.593,7.765-5.551,12.578-8.938c3.113-2.191,6.422-4.61,9.996-7.065
		c3.01-2.065,6.219-4.133,9.506-6.351c3.145-2.12,6.352-4.386,9.715-6.618c3.7-2.458,7.576-4.892,11.492-7.448
		c3.977-2.594,7.056-4.697,9.708-6.393c3.936-2.515,6.865-4.23,9.863-6.108c2.859-1.792,5.776-3.742,9.884-6.382
		c2.209-1.419,4.8-2.981,7.826-4.955c3.608-2.352,7.092-4.729,10.543-6.953c4.209-2.712,8.338-5.236,12.248-7.714
		c4.375-2.773,8.485-5.468,12.387-7.889c4.125-2.559,8.01-4.822,11.487-6.916c2.733-1.646,5.192-3.218,7.459-4.534
		c8.1-4.709,13.015-7.197,13.381-6.635c0.322,0.492-3.021,3.089-8.932,7.495c-3.473,2.589-7.765,5.911-12.907,9.51
		c-4.339,3.036-9.317,6.223-14.612,9.813c-4.094,2.775-8.332,5.857-12.882,8.881c-4.782,3.18-9.897,6.314-15.073,9.691
		c-3.862,2.543-6.804,4.727-9.382,6.44c-6.334,4.212-9.922,6.414-15.595,10.173C563.053,206.116,559.454,208.718,554.312,212.073z" style="opacity: 1;"></path>
	<path class="stblack" d="M605.341,272.919c-3.637,1.125-7.261,2.026-10.738,3.071c-5.023,1.508-9.798,3.112-14.373,4.422
		c-5.324,1.525-10.361,2.716-14.882,3.926c-4.373,1.169-8.264,2.368-11.692,3.198c-8.935,2.163-14.344,3.099-14.556,2.415
		c-0.196-0.631,4.033-2.628,11.425-5.498c3.507-1.36,7.756-2.825,12.551-4.527c3.1-1.101,6.415-2.355,9.965-3.562
		c2.985-1.015,6.145-1.97,9.4-3.042c3.115-1.025,6.312-2.167,9.634-3.229c3.657-1.169,7.459-2.264,11.319-3.46
		c3.921-1.214,6.975-2.243,9.582-3.02c3.869-1.152,6.717-1.861,9.657-2.704c2.805-0.804,5.689-1.738,9.731-2.954
		c2.173-0.654,4.701-1.323,7.684-2.248c3.556-1.101,7.011-2.261,10.408-3.289c4.143-1.253,8.179-2.352,12.018-3.478
		c4.296-1.259,8.352-2.527,12.174-3.601c4.038-1.136,7.814-2.067,11.204-2.963c2.668-0.705,5.086-1.426,7.286-1.965
		c7.871-1.932,12.567-2.756,12.767-2.116c0.173,0.562-3.205,1.974-9.144,4.295c-3.491,1.364-7.828,3.164-12.947,4.962
		c-4.319,1.518-9.213,2.981-14.461,4.723c-4.056,1.348-8.3,2.939-12.797,4.382c-4.728,1.516-9.728,2.886-14.83,4.466
		c-3.813,1.201-6.766,2.346-9.315,3.164c-6.26,2.008-9.767,2.974-15.372,4.759C614.01,270.012,610.411,271.349,605.341,272.919z" style="opacity: 1;"></path>
	<path class="stblack" d="M469.689,286.333c-12.178,5.73-15.759,25.782-5.014,25.782s7.164,7.878,15.761,6.446
		c8.597-1.432,20.058-7.878,15.044-14.323C490.464,297.792,469.689,286.333,469.689,286.333z" style="opacity: 1;"></path>
	<path class="stblack" d="M507.658,324.29c-14.328,0-20.775,18.62-10.745,25.066c10.03,6.445,14.328-0.716,20.775,3.58
		c6.447,4.297,10.03,0.716,7.88-7.161C523.419,337.897,514.105,324.29,507.658,324.29z" style="opacity: 1;"></path>
	<path class="stblack" d="M292.344,265.638c-4.796-3.567-1.822-7.377,1.269-6.183c3.091,1.193,3.801,6.329,2.285,6.983
		C294.382,267.092,292.344,265.638,292.344,265.638z" style="opacity: 1;"></path>
	<path class="stblack" d="M311.495,268.458c-3.831-0.659,2.265-8.945,5.88-6.762c1.806,1.091,1.505,2.982,0.169,4.501
		C316.205,267.715,313.832,268.86,311.495,268.458z" style="opacity: 1;"></path>
	<path class="stblack" d="M416.293,233.999c-1.566-1.302-2.994-2.724-4.532-3.924c-2.195-1.767-4.49-3.214-6.505-4.794
		c-2.33-1.859-4.42-3.74-6.39-5.339c-1.937-1.503-3.772-2.712-5.257-3.93c-3.84-3.22-5.992-5.407-5.563-6.205
		c0.396-0.738,3.048-0.239,7.151,1.427c1.948,0.786,4.148,1.954,6.649,3.267c1.631,0.833,3.39,1.728,5.194,2.773
		c1.523,0.872,2.976,1.995,4.58,3.023c1.536,0.977,3.151,1.966,4.721,3.11c1.739,1.247,3.437,2.649,5.171,4.09
		c1.77,1.45,3.257,2.468,4.375,3.501c1.662,1.529,2.755,2.765,3.984,3.95c1.194,1.102,2.414,2.29,4.098,3.943
		c0.875,0.92,1.883,1.98,3.088,3.247c1.428,1.523,2.906,2.945,4.245,4.421c1.626,1.809,2.915,3.823,4.305,5.589
		c1.595,1.943,2.866,4.018,4.078,5.903c1.309,1.978,2.141,4.06,2.947,5.886c0.63,1.434,1.338,2.669,1.764,3.882
		c1.262,4.493,1.557,7.153,0.756,7.43c-0.702,0.246-1.903-1.43-3.752-4.287c-0.967-1.734-2.89-3.533-4.452-5.896
		c-0.643-1.009-1.395-2.041-2.207-3.112c-0.801-1.076-1.635-2.201-2.506-3.372c-1.399-1.77-3.275-3.348-4.872-5.254
		c-1.705-1.988-3.531-4.066-5.439-6.167c-1.498-1.514-2.956-2.444-3.993-3.418c-2.546-2.399-3.977-3.728-6.368-5.768
		C420.286,236.853,418.5,235.785,416.293,233.999z" style="opacity: 1;"></path>
	<path class="stblack" d="M519.474,490.862c-2.683,10.728-6.708-2.011-12.745-9.388c-6.037-7.376-10.061-2.011-8.048-10.728
		c0,0,19.45-9.387,22.134-14.751C523.498,450.63,519.474,490.862,519.474,490.862z" style="opacity: 1;"></path>
	<path class="stblack" d="M281.686,203.79c-0.776-0.593-1.853-1.138-3.079-1.507c-0.814-0.219-1.678-0.498-2.639-0.437
		c-0.742,0.016-1.509,0.266-2.209,0.508c-0.697,0.296-1.469,0.372-2.126,0.869c-0.414,0.296-0.803,0.621-1.167,0.94
		c-0.349,0.335-0.61,0.735-0.902,1.059c-0.484,0.509-0.823,1.041-1.129,1.576c-0.333,0.523-0.625,1.04-0.778,1.608
		c-0.436,1.091-0.484,2.237-0.684,3.35c-0.061,0.958-0.068,1.643-0.04,2.285c0.103,0.622,0.241,1.208,0.468,1.977
		c0.335,0.786,0.787,1.844,1.575,3.138c0.286,0.491,0.481,0.925,0.646,1.322c0.191,0.378,0.362,0.711,0.522,1.027
		c0.504,1.068,0.963,1.818,1.671,2.753c0.47,0.712,1.174,1.382,2.389,2.206c0.427,0.307,0.967,0.421,1.291,0.617
		c0.799,0.44,1.145,0.794,1.464,1.033c0.772,0.479,0.893,0.627,2.648,1.155c0.65,0.177,1.082,0.341,1.509,0.438
		c0.853,0.169,1.388,0.186,2.094-0.289c0.232-0.161,0.153-1.293,0.133-1.583c-0.101-0.611-0.538-1.107-1.154-1.538
		c-0.466-0.293-1.066-0.455-1.62-0.81c-0.517-0.34-1.021-0.77-1.505-1.148c-0.439-0.352-1.221-0.649-1.925-1.221
		c-0.43-0.408-0.765-0.982-1.221-1.4c-0.565-0.606-1.224-1.129-1.692-1.688c-0.533-0.86-0.85-1.606-0.954-1.882
		c-0.094-0.283-0.749-0.837-1.158-1.708c-0.218-0.554-0.405-1.211-0.531-1.83c-0.148-0.536-0.544-1.05-0.562-1.549
		c-0.115-0.734,0.047-1.329,0.13-1.61c0.038-0.416,0.11-1.462,0.758-2.504c0.259-0.369,0.634-0.695,1.001-0.983l0.457-0.603
		c0.189-0.172,0.376-0.358,0.589-0.515c0.459-0.387,1.179-0.368,1.665-0.654c0.463-0.169,0.877-0.491,1.332-0.587
		c0.526-0.092,0.981,0.076,1.377,0.161c0.477,0.062,0.956,0.065,1.329,0.23c0.682,0.338,1.023,0.85,1.494,1.068
		c0.319,0.15,0.641,0.257,1.046,0.319c0.657,0.1,1.037-0.088,1.109-0.612c0.061-0.518-0.232-1.329-0.862-2.097
		C282.211,204.378,282.019,204.054,281.686,203.79z" style="opacity: 1;"></path>
	<path class="stblack" d="M286.779,230.673c0.774-0.657,1.692-1.437,2.636-2.241c0.637-0.541,1.35-0.993,2.036-1.606
		c0.499-0.497,0.963-1.134,1.464-1.673c0.533-0.536,1.023-1.069,1.498-1.698c0.596-0.774,0.983-1.697,1.424-2.426
		c0.657-1.196,1.296-2.194,1.719-3.348c0.459-1.101,0.711-2.322,1.019-3.518c0.493-2.107,0.466-3.087,0.119-4.968
		c-0.297-1.001-0.742-2.337-1.802-3.936c-0.36-0.613-0.758-1.075-1.032-1.54c-0.364-0.435-0.675-0.851-1.017-1.196
		c-1.158-1.107-2.249-1.744-3.79-2.198c-1.104-0.296-2.51-0.49-4.402,0.169c-0.682,0.224-1.242,0.655-1.687,0.893
		c-1.044,0.632-1.615,0.951-2.033,1.295c-0.504,0.369-0.765,0.627-1.093,1.032c-0.34,0.386-0.697,0.988-1.1,2.114
		c-0.256,0.849-0.497,1.394-0.542,1.96c-0.178,1.086,0.056,1.763,0.648,2.413c0.209,0.201,1.296-0.243,1.57-0.331
		c0.547-0.279,0.924-0.823,1.302-1.444c0.292-0.436,0.387-1.031,0.772-1.508c0.342-0.467,0.904-0.743,1.343-1.056
		c0.4-0.287,0.956-0.828,1.793-1.021c0.535-0.163,1.154,0,1.696,0.031c0.731,0.067,1.532,0.048,2.083,0.401
		c0.794,0.469,1.08,1.093,1.246,1.353c0.166,0.242,0.868,0.718,1.296,1.657c0.297,0.57,0.34,1.312,0.468,2.014
		c0.153,0.611,0.355,1.255,0.382,1.85c-0.04,0.87-0.263,1.572-0.396,1.924c-0.126,0.509-0.371,1.769-1.172,3.236
		c-0.326,0.53-0.754,1.046-1.163,1.61c-0.418,0.608-0.619,1.371-1.113,1.998c-0.52,0.717-1.174,1.346-1.723,2.025
		c-0.463,0.596-0.713,1.332-1.156,1.884c-0.495,0.654-1.093,1.103-1.509,1.602c-0.526,0.563-0.853,1.17-1.264,1.592
		c-0.745,0.793-1.494,1.192-1.903,1.773c-0.279,0.386-0.477,0.784-0.61,1.259c-0.448,1.601,1.104,1.315,2.931,0.226
		C286.057,231.064,286.451,230.963,286.779,230.673z" style="opacity: 1;"></path>
	<path class="stblack" d="M349.201,198.011c-0.911-0.693-2.175-1.331-3.608-1.764c-0.956-0.256-1.966-0.584-3.091-0.514
		c-0.87,0.017-1.77,0.31-2.591,0.59c-0.819,0.344-1.721,0.435-2.492,1.011c-0.486,0.345-0.942,0.726-1.372,1.1
		c-0.412,0.388-0.715,0.859-1.059,1.237c-0.569,0.597-0.974,1.217-1.329,1.845c-0.391,0.614-0.74,1.219-0.92,1.884
		c-0.513,1.279-0.574,2.625-0.805,3.931c-0.074,1.124-0.079,1.927-0.052,2.68c0.124,0.73,0.286,1.417,0.553,2.318
		c0.139,0.485,0.45,0.994,0.738,1.611c0.288,0.62,0.63,1.315,1.111,2.068c0.337,0.576,0.567,1.085,0.76,1.549
		c0.227,0.443,0.425,0.832,0.614,1.202c0.594,1.253,1.134,2.128,1.966,3.225c0.551,0.834,1.379,1.617,2.805,2.58
		c0.504,0.358,1.136,0.491,1.514,0.721c0.938,0.514,1.345,0.928,1.721,1.208c0.904,0.559,1.048,0.734,3.104,1.349
		c0.765,0.206,1.269,0.398,1.77,0.51c0.999,0.197,1.626,0.216,2.454-0.341c0.27-0.188,0.18-1.516,0.155-1.856
		c-0.121-0.715-0.634-1.297-1.356-1.802c-0.547-0.343-1.253-0.532-1.898-0.946c-0.61-0.397-1.201-0.902-1.768-1.344
		c-0.517-0.411-1.435-0.759-2.261-1.427c-0.506-0.479-0.9-1.15-1.433-1.639c-0.668-0.708-1.44-1.321-1.991-1.973
		c-0.625-1.007-0.999-1.881-1.122-2.204c-0.11-0.333-0.877-0.979-1.359-2c-0.256-0.649-0.477-1.418-0.625-2.143
		c-0.173-0.628-0.639-1.23-0.659-1.815c-0.052-0.425-0.04-0.819-0.02-1.145c0.049-0.323,0.153-0.569,0.175-0.742
		c0.045-0.486,0.13-1.711,0.891-2.929c0.304-0.434,0.747-0.811,1.179-1.148c0.211-0.197,0.344-0.472,0.538-0.704
		c0.218-0.202,0.439-0.419,0.691-0.604c0.256-0.237,0.623-0.327,0.974-0.414c0.351-0.085,0.668-0.23,0.981-0.347
		c0.547-0.198,1.032-0.576,1.568-0.687c0.616-0.108,1.152,0.09,1.617,0.19c0.558,0.072,1.12,0.075,1.559,0.269
		c0.799,0.396,1.203,0.995,1.754,1.249c0.373,0.175,0.751,0.301,1.226,0.373c0.769,0.117,1.217-0.106,1.298-0.718
		c0.07-0.608-0.272-1.558-1.012-2.458C349.817,198.699,349.593,198.32,349.201,198.011z" style="opacity: 1;"></path>
	<path class="stblack" d="M355.18,229.482c0.904-0.767,1.984-1.681,3.093-2.62c0.747-0.633,1.581-1.161,2.391-1.878
		c0.585-0.581,1.129-1.328,1.719-1.957c0.623-0.628,1.201-1.251,1.757-1.987c0.702-0.906,1.154-1.987,1.674-2.842
		c0.43-0.668,0.749-1.355,1.104-1.986c0.358-0.627,0.67-1.256,0.913-1.936c0.54-1.29,0.839-2.722,1.201-4.125
		c0.292-1.237,0.427-2.137,0.425-3.014c0.07-0.862-0.097-1.709-0.29-2.812c-0.351-1.174-0.873-2.741-2.119-4.612
		c-0.427-0.716-0.893-1.257-1.217-1.802c-0.434-0.507-0.792-0.998-1.197-1.398c-1.361-1.296-2.643-2.034-4.447-2.563
		c-1.291-0.346-2.938-0.57-5.151,0.199c-0.801,0.262-1.458,0.768-1.977,1.044c-1.224,0.739-1.896,1.111-2.387,1.512
		c-0.592,0.431-0.897,0.734-1.282,1.208c-0.4,0.451-0.819,1.156-1.296,2.476c-0.301,0.994-0.585,1.633-0.637,2.296
		c-0.211,1.273,0.061,2.068,0.754,2.83c0.247,0.235,1.521-0.286,1.842-0.388c0.641-0.326,1.084-0.962,1.527-1.688
		c0.346-0.51,0.457-1.206,0.909-1.763c0.403-0.546,1.057-0.868,1.575-1.235c0.47-0.335,1.125-0.968,2.105-1.195
		c0.63-0.19,1.354,0,1.993,0.037c0.859,0.076,1.799,0.056,2.445,0.468c0.936,0.545,1.273,1.279,1.467,1.579
		c0.196,0.283,1.019,0.839,1.523,1.937c0.171,0.332,0.29,0.712,0.337,1.124c0.079,0.403,0.164,0.808,0.216,1.231
		c0.175,0.715,0.416,1.468,0.448,2.164c-0.047,1.021-0.31,1.842-0.463,2.253c-0.079,0.302-0.209,0.813-0.378,1.475
		c-0.268,0.646-0.502,1.467-0.999,2.314c-0.382,0.621-0.886,1.224-1.365,1.885c-0.493,0.712-0.729,1.603-1.309,2.337
		c-0.612,0.84-1.379,1.575-2.024,2.37c-0.542,0.698-0.837,1.561-1.359,2.207c-0.58,0.766-1.282,1.29-1.773,1.874
		c-0.616,0.659-0.999,1.369-1.482,1.863c-0.873,0.928-1.752,1.393-2.236,2.074c-0.326,0.452-0.558,0.919-0.713,1.474
		c-0.529,1.877,1.291,1.546,3.433,0.272C354.332,229.94,354.793,229.822,355.18,229.482z" style="opacity: 1;"></path>
</g>
</svg>
